<?xml version="1.0" encoding="utf-8"?>
<!-- Generator: Adobe Illustrator 22.0.1, SVG Export Plug-In . SVG Version: 6.00 Build 0)  -->
<svg version="1.1" id="Calque_1" xmlns="http://www.w3.org/2000/svg" xmlns:xlink="http://www.w3.org/1999/xlink" x="0px" y="0px"
	 viewBox="0 0 141.7 141.7" style="enable-background:new 0 0 141.7 141.7;" xml:space="preserve">
<style type="text/css">
	.st0{fill:#F47822;}
	.st1{fill:#F99F1B;}
	.st2{fill:#454545;}
	.st3{fill:#5B5B5B;}
</style>
<g>
	<path class="st0" d="M137.2,42l-16.9-15.6c-0.7-0.7-1.7-1-2.6-1H7.1c-2.2,0-3.9,1.7-3.9,3.9v83.2c0,2.2,1.7,3.9,3.9,3.9h127.5
		c2.2,0,3.9-1.7,3.9-3.9V44.9C138.5,43.8,138,42.7,137.2,42z"/>
	<path class="st1" d="M70.9,25.3H7.1c-2.2,0-3.9,1.7-3.9,3.9v83.2c0,2.2,1.7,3.9,3.9,3.9h63.7V25.3z"/>
	<rect x="3.2" y="77.4" class="st2" width="135.3" height="23.4"/>
	<rect x="3.2" y="77.4" class="st3" width="67.6" height="23.4"/>
	<path class="st3" d="M34.4,41c-7.9,0-14.3,6.4-14.3,14.3s6.4,14.3,14.3,14.3s14.3-6.4,14.3-14.3S42.3,41,34.4,41z"/>
</g>
</svg>
