<?xml version="1.0" encoding="utf-8"?>
<!-- Generator: Adobe Illustrator 22.0.1, SVG Export Plug-In . SVG Version: 6.00 Build 0)  -->
<svg version="1.1" id="Calque_1" xmlns="http://www.w3.org/2000/svg" xmlns:xlink="http://www.w3.org/1999/xlink" x="0px" y="0px"
	 viewBox="0 0 141.7 141.7" style="enable-background:new 0 0 141.7 141.7;" xml:space="preserve">
<style type="text/css">
	.st0{fill:#0973BA;}
</style>
<g>
	<g>
		<g>
			<path class="st0" d="M52.8,77.8c0-1.7-1.4-3-3-3H39.2c-1.7,0-3,1.4-3,3v10.5c0,1.7,1.4,3,3,3h10.5c1.7,0,3-1.4,3-3L52.8,77.8
				L52.8,77.8z"/>
			<path class="st0" d="M79.2,77.8c0-1.7-1.4-3-3-3H65.6c-1.7,0-3,1.4-3,3v10.5c0,1.7,1.4,3,3,3h10.5c1.7,0,3-1.4,3-3V77.8z"/>
			<path class="st0" d="M105.5,77.8c0-1.7-1.4-3-3-3H92c-1.7,0-3,1.4-3,3v10.5c0,1.7,1.4,3,3,3h10.5c1.7,0,3-1.4,3-3V77.8z"/>
			<path class="st0" d="M52.8,104.1c0-1.7-1.4-3-3-3H39.2c-1.7,0-3,1.4-3,3v10.5c0,1.7,1.4,3,3,3h10.5c1.7,0,3-1.4,3-3L52.8,104.1
				L52.8,104.1z"/>
			<path class="st0" d="M79.2,104.1c0-1.7-1.4-3-3-3H65.6c-1.7,0-3,1.4-3,3v10.5c0,1.7,1.4,3,3,3h10.5c1.7,0,3-1.4,3-3V104.1z"/>
			<path class="st0" d="M105.5,104.1c0-1.7-1.4-3-3-3H92c-1.7,0-3,1.4-3,3v10.5c0,1.7,1.4,3,3,3h10.5c1.7,0,3-1.4,3-3L105.5,104.1
				L105.5,104.1z"/>
			<path class="st0" d="M124.4,19.1v16.1c0,7.3-5.9,13.1-13.2,13.1h-8.3c-7.3,0-13.3-5.9-13.3-13.1V19.1H52.1v16.2
				c0,7.3-6,13.1-13.3,13.1h-8.3c-7.3,0-13.2-5.9-13.2-13.1V19.1C11,19.3,5.8,24.6,5.8,31v94.4c0,6.6,5.3,12,11.9,12H124
				c6.6,0,11.9-5.4,11.9-12V31C136,24.6,130.7,19.3,124.4,19.1z M120.5,119.6c0,2.8-2.3,5.2-5.2,5.2H26.1c-2.9,0-5.2-2.3-5.2-5.2
				V70.8c0-2.9,2.3-5.2,5.2-5.2h89.2c2.9,0,5.2,2.3,5.2,5.2L120.5,119.6L120.5,119.6z"/>
			<path class="st0" d="M30.5,39.7h8.2c2.5,0,4.5-2,4.5-4.5V8.8c0-2.5-2-4.5-4.5-4.5h-8.2c-2.5,0-4.5,2-4.5,4.5v26.4
				C26,37.7,28,39.7,30.5,39.7z"/>
			<path class="st0" d="M102.8,39.7h8.2c2.5,0,4.5-2,4.5-4.5V8.8c0-2.5-2-4.5-4.5-4.5h-8.2c-2.5,0-4.5,2-4.5,4.5v26.4
				C98.3,37.7,100.3,39.7,102.8,39.7z"/>
		</g>
	</g>
</g>
</svg>
