<?xml version="1.0" encoding="utf-8"?>
<!-- Generator: Adobe Illustrator 22.0.1, SVG Export Plug-In . SVG Version: 6.00 Build 0)  -->
<svg version="1.1" id="Calque_1" xmlns="http://www.w3.org/2000/svg" xmlns:xlink="http://www.w3.org/1999/xlink" x="0px" y="0px"
	 viewBox="0 0 141.7 141.7" style="enable-background:new 0 0 141.7 141.7;" xml:space="preserve">
<style type="text/css">
	.st0{fill:#F99F1B;}
	.st1{fill:#B4B4B4;}
	.st2{fill:#CCCCCC;}
	.st3{fill:#C0E1F7;}
	.st4{fill:#1072BA;}
	.st5{fill:#2AAAE2;}
	.st6{fill:#95D0F2;}
</style>
<g>
	<g>
		<path id="XMLID_56_" class="st0" d="M96.2,5.3l-2.8,7.1l2.8,7.1c0,0.8-0.6,1.4-1.4,1.4H70.7v-17h24.1C95.6,3.9,96.2,4.5,96.2,5.3z
			"/>
		<path id="XMLID_55_" class="st1" d="M72.1,2.4v123.3h-2.8V2.4c0-0.8,0.6-1.4,1.4-1.4l0,0C71.5,1,72.1,1.7,72.1,2.4z"/>
	</g>
	<rect x="48.9" y="70" class="st2" width="44.2" height="53"/>
	<g>
		<rect x="18" y="70" class="st3" width="30.9" height="53"/>
		<rect x="93.1" y="70" class="st3" width="30.9" height="53"/>
	</g>
	<rect x="7" y="131.9" class="st4" width="128.2" height="8.8"/>
	<rect x="13.6" y="123" class="st5" width="114.9" height="8.8"/>
	<polygon class="st4" points="22.4,52.3 71,32.4 119.7,52.3 	"/>
	<path class="st4" d="M71,98.7L71,98.7c7.3,0,13.3,5.9,13.3,13.3v11l0,0H57.8l0,0v-11C57.8,104.7,63.7,98.7,71,98.7z"/>
	<g>
		<rect x="73.3" y="112" class="st5" width="4.4" height="4.4"/>
		<rect x="64.4" y="112" class="st5" width="4.4" height="4.4"/>
	</g>
	<rect x="13.6" y="61.2" class="st4" width="114.9" height="8.8"/>
	<rect x="18" y="52.3" class="st5" width="106.1" height="8.8"/>
	<g>
		<path class="st6" d="M103.5,83.3L71,48.9L38.6,83.3l-5.1,4.4h13.3c1.2,0,2.2,1,2.2,2.2V123h44.2V89.9c0-1.2,1-2.2,2.2-2.2h13.3
			L103.5,83.3z"/>
		<path class="st1" d="M71,63.4c-4.9,0-8.8,4-8.8,8.8s4,8.8,8.8,8.8s8.8-4,8.8-8.8S75.9,63.4,71,63.4z M71,76.6
			c-2.4,0-4.4-2-4.4-4.4s2-4.4,4.4-4.4s4.4,2,4.4,4.4C75.5,74.6,73.5,76.6,71,76.6z"/>
		<path class="st4" d="M75.5,72.2c0,2.4-2,4.4-4.4,4.4s-4.4-2-4.4-4.4s2-4.4,4.4-4.4S75.5,69.8,75.5,72.2z"/>
		<path class="st4" d="M79.9,98.7V123H62.2V98.7c0-1.2,1-2.2,2.2-2.2h13.3C78.9,96.5,79.9,97.5,79.9,98.7z"/>
		<path class="st4" d="M108.6,87.7c-0.6,0-1.2-0.3-1.6-0.7L71,48.9L35.1,87c-0.8,0.9-2.2,0.9-3.1,0.1c-0.9-0.8-0.9-2.2-0.1-3.1
			l37.6-39.8c0.9-0.9,2.3-0.9,3.2,0L110.2,84c0.6,0.6,0.8,1.6,0.4,2.4C110.3,87.2,109.5,87.7,108.6,87.7z"/>
	</g>
	<path id="XMLID_54_" class="st1" d="M33.5,89.3L33.5,89.3c-3.7,0-6.7,3-6.7,6.7v25.5h13.4V96C40.2,92.3,37.2,89.3,33.5,89.3z"/>
	<path id="XMLID_53_" class="st4" d="M29.5,108.9v-7.2h8v7.2H29.5z M37.5,99.1V96c0-2.2-1.8-4-4-4l0,0c-2.2,0-4,1.8-4,4v3.1H37.5
		L37.5,99.1z M29.5,111.6v7.2h8v-7.2H29.5z"/>
	<path id="XMLID_52_" class="st1" d="M109.7,89.3L109.7,89.3c-3.7,0-6.7,3-6.7,6.7v25.5h13.4V96C116.4,92.3,113.4,89.3,109.7,89.3z"
		/>
	<path id="XMLID_51_" class="st4" d="M105.7,108.9v-7.2h8v7.2H105.7z M113.7,99.1V96c0-2.2-1.8-4-4-4l0,0c-2.2,0-4,1.8-4,4v3.1
		H113.7L113.7,99.1z M105.7,111.6v7.2h8v-7.2H105.7z"/>
</g>
</svg>
