<?xml version="1.0" encoding="utf-8"?>
<!-- Generator: Adobe Illustrator 22.0.1, SVG Export Plug-In . SVG Version: 6.00 Build 0)  -->
<svg version="1.1" id="Calque_1" xmlns="http://www.w3.org/2000/svg" xmlns:xlink="http://www.w3.org/1999/xlink" x="0px" y="0px"
	 viewBox="0 0 141.7 141.7" style="enable-background:new 0 0 141.7 141.7;" xml:space="preserve">
<style type="text/css">
	.st0{fill:#FFFFFF;}
	.st1{fill:#292B73;}
	.st2{fill:#CCCCCC;}
	.st3{fill:#27AAE1;}
	.st4{fill:#3953A4;}
	.st5{fill:#1072BA;}
	.st6{fill:#2AAAE2;}
	.st7{fill:#F99F1B;}
</style>
<g>
	<g>
		<path id="XMLID_40_" class="st0" d="M96,5.5l-2.8,7.1l2.8,7.1c0,0.8-0.6,1.4-1.4,1.4h-24v-17h24C95.3,4.1,96,4.7,96,5.5z"/>
		<path id="XMLID_38_" class="st1" d="M71.9,2.6v122.9h-2.8V2.6c0-0.8,0.6-1.4,1.4-1.4l0,0C71.3,1.2,71.9,1.9,71.9,2.6z"/>
	</g>
	<rect x="48.8" y="70" class="st2" width="44.1" height="52.9"/>
	<g>
		<rect x="18" y="70" class="st3" width="30.8" height="52.9"/>
		<rect x="92.9" y="70" class="st3" width="30.8" height="52.9"/>
	</g>
	<rect x="7" y="131.7" class="st1" width="127.8" height="8.8"/>
	<rect x="13.6" y="122.9" class="st4" width="114.6" height="8.8"/>
	<polygon class="st1" points="22.4,52.4 70.9,32.6 119.3,52.4 	"/>
	<path class="st5" d="M70.9,98.6L70.9,98.6c7.3,0,13.2,5.9,13.2,13.2v11l0,0H57.6l0,0v-11C57.6,104.6,63.6,98.6,70.9,98.6z"/>
	<g>
		<rect x="73.1" y="111.9" class="st6" width="4.4" height="4.4"/>
		<rect x="64.3" y="111.9" class="st6" width="4.4" height="4.4"/>
	</g>
	<rect x="13.6" y="61.2" class="st1" width="114.6" height="8.8"/>
	<rect x="18" y="52.4" class="st4" width="105.7" height="8.8"/>
	<g>
		<path class="st4" d="M103.2,83.2L70.9,49L38.5,83.2l-5.1,4.4h13.2c1.2,0,2.2,1,2.2,2.2v33h44.1v-33c0-1.2,1-2.2,2.2-2.2h13.2
			L103.2,83.2z"/>
		<path class="st0" d="M70.9,63.4c-4.9,0-8.8,3.9-8.8,8.8c0,4.9,3.9,8.8,8.8,8.8c4.9,0,8.8-3.9,8.8-8.8
			C79.7,67.3,75.7,63.4,70.9,63.4z M70.9,76.6c-2.4,0-4.4-2-4.4-4.4s2-4.4,4.4-4.4s4.4,2,4.4,4.4C75.3,74.6,73.3,76.6,70.9,76.6z"/>
		<path class="st7" d="M75.3,72.2c0,2.4-2,4.4-4.4,4.4s-4.4-2-4.4-4.4s2-4.4,4.4-4.4S75.3,69.8,75.3,72.2z"/>
		<path class="st7" d="M79.7,98.6v24.2H62.1V98.6c0-1.2,1-2.2,2.2-2.2h13.2C78.7,96.4,79.7,97.4,79.7,98.6z"/>
		<path class="st1" d="M108.3,87.6c-0.6,0-1.2-0.2-1.6-0.7L70.9,49L35,86.9c-0.8,0.9-2.2,0.9-3.1,0.1c-0.9-0.8-0.9-2.2-0.1-3.1
			l37.5-39.7c0.9-0.9,2.3-0.9,3.2,0l37.5,39.7c0.6,0.6,0.8,1.6,0.4,2.4C110,87.1,109.2,87.6,108.3,87.6z"/>
	</g>
	<path id="XMLID_37_" class="st0" d="M33.4,89.2L33.4,89.2c-3.7,0-6.7,3-6.7,6.7v25.4h13.4V95.9C40.1,92.2,37.1,89.2,33.4,89.2z"/>
	<path id="XMLID_36_" class="st7" d="M29.4,108.8v-7.1h8v7.1H29.4z M37.4,99v-3.1c0-2.2-1.8-4-4-4l0,0c-2.2,0-4,1.8-4,4V99H37.4
		L37.4,99z M29.4,111.5v7.1h8v-7.1H29.4z"/>
	<path id="XMLID_35_" class="st0" d="M109.4,89.2L109.4,89.2c-3.7,0-6.7,3-6.7,6.7v25.4h13.4V95.9C116.1,92.2,113.1,89.2,109.4,89.2
		z"/>
	<path id="XMLID_19_" class="st7" d="M105.4,108.8v-7.1h8v7.1H105.4z M113.4,99v-3.1c0-2.2-1.8-4-4-4l0,0c-2.2,0-4,1.8-4,4V99H113.4
		L113.4,99z M105.4,111.5v7.1h8v-7.1H105.4z"/>
</g>
</svg>
