<?xml version="1.0" encoding="utf-8"?>
<!-- Generator: Adobe Illustrator 22.0.1, SVG Export Plug-In . SVG Version: 6.00 Build 0)  -->
<svg version="1.1" id="Calque_1" xmlns="http://www.w3.org/2000/svg" xmlns:xlink="http://www.w3.org/1999/xlink" x="0px" y="0px"
	 viewBox="0 0 141.7 141.7" style="enable-background:new 0 0 141.7 141.7;" xml:space="preserve">
<style type="text/css">
	.st0{fill:#F99F1B;}
	.st1{fill:#F47B20;}
	.st2{fill:#FFE4C0;}
</style>
<g>
	<path class="st0" d="M70.6,3.7c-36.9,0-66.9,30-66.9,66.9c0,36.9,30,67.4,66.9,67.4S138,107.5,138,70.6
		C138,33.7,107.5,3.7,70.6,3.7z"/>
	<path class="st1" d="M138,70.6c0,36.9-30.5,67.4-67.4,67.4V3.7C107.5,3.7,138,33.7,138,70.6z"/>
	<polygon class="st2" points="102.6,94.1 81.8,73.3 102.6,52.5 91.4,41.3 70.6,62.1 49.8,41.3 38.6,52.5 59.4,73.3 38.6,94.1 
		49.8,105.3 70.6,84.5 91.4,105.3 	"/>
</g>
</svg>
