<?xml version="1.0" encoding="utf-8"?>
<!-- Generator: Adobe Illustrator 22.0.1, SVG Export Plug-In . SVG Version: 6.00 Build 0)  -->
<svg version="1.1" id="Calque_1" xmlns="http://www.w3.org/2000/svg" xmlns:xlink="http://www.w3.org/1999/xlink" x="0px" y="0px"
	 viewBox="0 0 141.7 141.7" style="enable-background:new 0 0 141.7 141.7;" xml:space="preserve">
<style type="text/css">
	.st0{fill:#292B73;}
	.st1{fill:#1F2050;}
</style>
<g>
	<g>
		<path class="st0" d="M28.1,87.8c5.4,0,9.9-5.9,9.9-13.2c0-7.3-4.4-13.2-9.9-13.2c-5.4,0-9.9,5.9-9.9,13.2
			C18.2,81.9,22.6,87.8,28.1,87.8z"/>
		<path class="st0" d="M51.6,87.8c5.4,0,9.9-5.9,9.9-13.2c0-7.3-4.4-13.2-9.9-13.2c-5.4,0-9.9,5.9-9.9,13.2
			C41.7,81.9,46.1,87.8,51.6,87.8z"/>
		<path class="st0" d="M70,81.2c-4.3-0.8-8.5,2.9-9.6,8.6c-1.1,5.7,1.4,10.8,5.6,11.6c4.3,0.8,8.5-2.9,9.6-8.6
			C76.8,87.1,74.3,82,70,81.2z"/>
		<path class="st0" d="M19.3,89.8c-1.1-5.7-5.3-9.4-9.6-8.6C5.4,82,2.9,87.1,4,92.8c1.1,5.7,5.3,9.4,9.6,8.6
			C17.9,100.6,20.4,95.5,19.3,89.8z"/>
		<path class="st1" d="M54.7,104.4c-1.2-7.2-7.4-12.7-14.9-12.7s-13.7,5.5-14.9,12.7c-5.3,2.3-9.1,7.7-9.1,13.8
			c0,8.3,6.8,15.1,15.1,15.1c3.3,0,6.4-1.1,8.9-2.9c2.5,1.8,5.6,2.9,8.9,2.9c8.3,0,15.1-6.8,15.1-15.1
			C63.8,112,60.1,106.7,54.7,104.4z"/>
		<path class="st1" d="M90.1,34.9c5.4,0,9.9-5.9,9.9-13.2S95.6,8.4,90.1,8.4c-5.4,0-9.9,5.9-9.9,13.2S84.7,34.9,90.1,34.9z"/>
		<path class="st1" d="M113.7,34.9c5.4,0,9.9-5.9,9.9-13.2s-4.4-13.2-9.9-13.2c-5.4,0-9.9,5.9-9.9,13.2
			C103.8,29,108.2,34.9,113.7,34.9z"/>
		<path class="st1" d="M132.1,28.3c-4.3-0.8-8.5,2.9-9.6,8.6c-1.1,5.7,1.4,10.8,5.6,11.6c4.3,0.8,8.5-2.9,9.6-8.6
			C138.8,34.2,136.4,29.2,132.1,28.3z"/>
		<path class="st1" d="M75.7,48.5c4.3-0.8,6.8-5.9,5.6-11.6c-1.1-5.7-5.3-9.4-9.6-8.6c-4.3,0.8-6.8,5.9-5.6,11.6
			C67.2,45.6,71.4,49.4,75.7,48.5z"/>
		<path class="st0" d="M116.8,51.5c-1.2-7.2-7.4-12.7-14.9-12.7c-7.5,0-13.7,5.5-14.9,12.7c-5.3,2.3-9.1,7.7-9.1,13.8
			c0,8.3,6.8,15.1,15.1,15.1c3.3,0,6.4-1.1,8.9-2.9c2.5,1.8,5.6,2.9,8.9,2.9c8.3,0,15.1-6.8,15.1-15.1
			C125.9,59.1,122.1,53.8,116.8,51.5z"/>
	</g>
</g>
</svg>
