<?xml version="1.0" encoding="utf-8"?>
<!-- Generator: Adobe Illustrator 22.0.1, SVG Export Plug-In . SVG Version: 6.00 Build 0)  -->
<svg version="1.1" id="Calque_1" xmlns="http://www.w3.org/2000/svg" xmlns:xlink="http://www.w3.org/1999/xlink" x="0px" y="0px"
	 viewBox="0 0 141.7 141.7" style="enable-background:new 0 0 141.7 141.7;" xml:space="preserve">
<style type="text/css">
	.st0{fill:#F99F1B;}
	.st1{fill:none;stroke:#F47B20;stroke-width:6;stroke-miterlimit:10;}
</style>
<g>
	<path class="st0" d="M132.7,13.3l-3.9-3.9c-4.6-4.6-11.9-4.6-16.5,0l-5.9,5.9L53,68.6l-0.2,0.2L45,97l28.2-7.8l0.2-0.2l0,0
		l53.3-53.3l5.9-5.9C137.2,25.3,137.2,17.9,132.7,13.3z"/>
	<path class="st1" d="M115.8,135.7H22.3c-9.2,0-16.6-7.5-16.7-16.7V32.3c0-9.2,7.5-16.6,16.7-16.7h29.6c1.8,0,3.3,1.5,3.3,3.3
		s-1.5,3.3-3.3,3.3H22.3c-5.5,0-10,4.5-10,10v86.8c0,5.5,4.5,10,10,10h93.5c5.5,0,10-4.5,10-10V89.5c0-1.8,1.5-3.3,3.3-3.3
		c1.8,0,3.3,1.5,3.3,3.3v29.6C132.4,128.3,125,135.7,115.8,135.7z"/>
</g>
</svg>
