<?xml version="1.0" encoding="utf-8"?>
<!-- Generator: Adobe Illustrator 22.0.1, SVG Export Plug-In . SVG Version: 6.00 Build 0)  -->
<svg version="1.1" id="Calque_1" xmlns="http://www.w3.org/2000/svg" xmlns:xlink="http://www.w3.org/1999/xlink" x="0px" y="0px"
	 viewBox="0 0 141.7 141.7" style="enable-background:new 0 0 141.7 141.7;" xml:space="preserve">
<style type="text/css">
	.st0{fill:#32409A;}
	.st1{fill:#2D2E73;}
	.st2{fill:#2B378E;}
</style>
<g>
	<rect x="37.9" y="124" class="st0" width="47.3" height="16.5"/>
	<rect x="85.2" y="124" class="st1" width="47.3" height="16.5"/>
	<g>
		<path class="st0" d="M85.2,67c-26,0-47.3,22-47.3,48.9v8.1h94.6v-8.1C132.5,89,111.2,67,85.2,67z"/>
		<path class="st1" d="M132.5,115.8v8.1H85.2V67C111.2,67,132.5,89,132.5,115.8z"/>
		<path class="st0" d="M85.2,1.3c-17.3,0-31.5,14.7-31.5,32.6S67.9,67,85.2,67s31.5-15.2,31.5-33.1S102.6,1.3,85.2,1.3z"/>
		<path class="st1" d="M85.2,67V1.3c17.3,0,31.5,14.7,31.5,32.6S102.6,67,85.2,67z"/>
	</g>
	<path class="st0" d="M34.6,59.1c-11.1,0-20.3,9.1-20.3,20.3s9.1,20.3,20.3,20.3s20.3-9.1,20.3-20.3S45.7,59.1,34.6,59.1z"/>
	<path class="st0" d="M59.9,124.9v15.5H9.2v-15.5c0-14,11.3-25.3,25.3-25.3c7,0,13.4,2.8,17.9,7.4C57.1,111.5,59.9,117.9,59.9,124.9
		z"/>
	<path class="st2" d="M54.8,79.3c0,11.1-9.1,20.3-20.3,20.3V59.1C45.7,59.1,54.8,68.2,54.8,79.3z"/>
	<path class="st2" d="M59.9,124.9v15.5H34.6V99.6c7,0,13.4,2.8,17.9,7.4C57.1,111.5,59.9,117.9,59.9,124.9z"/>
</g>
</svg>
