<?xml version="1.0" encoding="utf-8"?>
<!-- Generator: Adobe Illustrator 22.0.1, SVG Export Plug-In . SVG Version: 6.00 Build 0)  -->
<svg version="1.1" id="Calque_1" xmlns="http://www.w3.org/2000/svg" xmlns:xlink="http://www.w3.org/1999/xlink" x="0px" y="0px"
	 viewBox="0 0 141.7 141.7" style="enable-background:new 0 0 141.7 141.7;" xml:space="preserve">
<style type="text/css">
	.st0{fill:#1A1E47;}
	.st1{fill:#F99F1B;}
	.st2{opacity:0.5;fill:#010101;enable-background:new    ;}
	.st3{fill:#292B73;}
	.st4{fill:#3953A4;}
	.st5{fill:#2B3990;}
</style>
<g>
	<path class="st0" d="M140.2,84l-0.1-12.8c-3.1-0.4-5.5-3-5.5-6.2l-92.6,0.5c0,3.2-2.4,5.9-5.4,6.3l0.1,12.8c3.1,0.4,5.5,3,5.5,6.2
		l0,0c0,3.2-2.4,5.9-5.4,6.3l0.1,12.8c3.1,0.4,5.5,3,5.5,6.2l0,0l0,0l92.6-0.5l0,0l0,0c0-3.2,2.4-5.9,5.4-6.3l-0.1-12.8
		c-3.1-0.4-5.5-3-5.5-6.2l0,0C134.7,87.1,137.1,84.5,140.2,84z"/>
	<g>
		<path class="st1" d="M78.2,104.6c-0.9,0-1.6-0.7-1.6-1.5l-0.3-26.3c0-0.9,0.7-1.6,1.5-1.6c0.9,0,1.6,0.7,1.6,1.5l0.3,26.3
			C79.7,103.9,79,104.6,78.2,104.6z"/>
		<path class="st1" d="M96.8,81.4l-12.1,0.1c-0.9,0-1.6-0.7-1.6-1.5c0-0.9,0.7-1.6,1.5-1.6l12.1-0.1c0.9,0,1.6,0.7,1.6,1.5
			C98.4,80.7,97.7,81.4,96.8,81.4z"/>
		<path class="st1" d="M114.7,87.8l-29.9,0.3c-0.9,0-1.6-0.7-1.6-1.5c0-0.9,0.7-1.6,1.5-1.6l29.9-0.3c0.9,0,1.6,0.7,1.6,1.5
			C116.2,87.1,115.6,87.8,114.7,87.8z"/>
		<path class="st1" d="M114.8,94.4l-29.9,0.3c-0.9,0-1.6-0.7-1.6-1.5c0-0.9,0.7-1.6,1.5-1.6l29.9-0.3c0.9,0,1.6,0.7,1.6,1.5
			C116.3,93.7,115.6,94.4,114.8,94.4z"/>
		<path class="st1" d="M108.2,101.1l-23.3,0.2c-0.9,0-1.6-0.7-1.6-1.5c0-0.9,0.7-1.6,1.5-1.6l23.3-0.2c0.9,0,1.6,0.7,1.6,1.5
			S109.1,101.1,108.2,101.1z"/>
	</g>
	<g>
		<g id="directions-subway_5_">
			<path class="st1" d="M61.3,77.8c-5.7,0.1-10.4,0.8-10.3,5.3l0.1,12.3c0,2.5,2.1,4.5,4.6,4.5l-1.9,2l0,0.6l15.6-0.2l0-0.6l-2-1.9
				c2.5,0,4.5-2.1,4.5-4.6l-0.1-12.3C71.7,78.3,67,77.7,61.3,77.8z M55.7,97.3c-1,0-2-0.9-2-1.9c0-1,0.9-2,1.9-2s2,0.9,2,1.9
				C57.6,96.4,56.7,97.3,55.7,97.3z M60.1,89.5l-6.5,0.1l-0.1-6.5l6.5-0.1L60.1,89.5z M67.4,97.2c-1,0-2-0.9-2-1.9c0-1,0.9-2,1.9-2
				s2,0.9,2,1.9C69.3,96.3,68.4,97.2,67.4,97.2z M69.2,89.4l-6.5,0.1L62.7,83l6.5-0.1L69.2,89.4z"/>
		</g>
	</g>
	<path class="st2" d="M36.8,107.2l81-32.4l-2.4-5.9l4.8-2.7l-0.4-1.1l-77.8,0.4c0,3.2-2.4,5.9-5.4,6.3l0.1,12.8
		c3.1,0.4,5.5,3,5.5,6.2l0,0c0,3.2-2.4,5.9-5.4,6.3L36.8,107.2z"/>
	<path class="st3" d="M102.2,39.6l-4.8-11.9c-3,0.8-6.2-0.8-7.4-3.8L4.2,58.3c1.2,3,0,6.3-2.8,7.9l4.8,11.9c3-0.8,6.2,0.8,7.4,3.8
		l0,0c1.2,3,0,6.3-2.8,7.9l4.8,11.9c3-0.8,6.2,0.8,7.4,3.8l0,0l0,0L108.9,71l0,0l0,0c-1.2-3,0-6.3,2.8-7.9l-4.8-11.9
		c-3,0.8-6.2-0.8-7.4-3.8l0,0C98.3,44.5,99.5,41.1,102.2,39.6z"/>
	<g>
		<path class="st4" d="M77.4,33.9c-0.1-0.1-0.2-0.3-0.2-0.4l-1.5-3.8c-0.4-1.1,0.1-2.3,1.1-2.7c1.1-0.4,2.3,0.1,2.7,1.1L81,32
			c0.4,1.1-0.1,2.3-1.1,2.7C79,35,77.9,34.7,77.4,33.9z"/>
		<path class="st4" d="M90,65.5c-0.1-0.1-0.2-0.3-0.2-0.4l-3.2-7.9c-0.4-1.1,0.1-2.3,1.1-2.7c1.1-0.4,2.3,0.1,2.7,1.1l3.2,7.9
			c0.4,1.1-0.1,2.3-1.1,2.7C91.6,66.6,90.6,66.2,90,65.5z M83.7,49.7c-0.1-0.1-0.2-0.3-0.2-0.4l-3.2-7.9c-0.4-1.1,0.1-2.3,1.1-2.7
			c1.1-0.4,2.3,0.1,2.7,1.1l3.2,7.9c0.4,1.1-0.1,2.3-1.1,2.7C85.3,50.8,84.3,50.5,83.7,49.7z"/>
		<path class="st4" d="M94.7,77.2c-0.1-0.1-0.2-0.3-0.2-0.4L93,72.9c-0.4-1.1,0.1-2.3,1.1-2.7c1.1-0.4,2.3,0.1,2.7,1.1l1.5,3.8
			c0.4,1.1-0.1,2.3-1.1,2.7C96.3,78.3,95.2,77.9,94.7,77.2z"/>
	</g>
	<g>
		<path class="st5" d="M119.5,70.3c-0.2-0.3-0.4-0.7-0.4-1.2l0-4.1c0-1.1,0.9-2.1,2-2.1c1.1,0,2.1,0.9,2.1,2l0,4.1
			c0,1.1-0.9,2.1-2,2.1C120.5,71.2,119.8,70.9,119.5,70.3z"/>
		<path class="st5" d="M119.7,104.3c-0.2-0.3-0.4-0.7-0.4-1.2l0-8.5c0-1.1,0.9-2.1,2-2.1c1.1,0,2.1,0.9,2.1,2l0,8.5
			c0,1.1-0.9,2.1-2,2.1C120.7,105.2,120,104.8,119.7,104.3z M119.6,87.3c-0.2-0.3-0.4-0.7-0.4-1.2l0-8.5c0-1.1,0.9-2.1,2-2.1
			c1.1,0,2.1,0.9,2.1,2l0,8.5c0,1.1-0.9,2.1-2,2.1C120.6,88.2,119.9,87.9,119.6,87.3z"/>
		<path class="st5" d="M119.7,116.9c-0.2-0.3-0.4-0.7-0.4-1.2l0-4.1c0-1.1,0.9-2.1,2-2.1c1.1,0,2.1,0.9,2.1,2l0,4.1
			c0,1.1-0.9,2.1-2,2.1C120.7,117.8,120.1,117.4,119.7,116.9z"/>
	</g>
	<g>
		<path class="st1" d="M51.1,80.6c-0.8,0.3-1.7-0.1-2-0.9l-9.8-24.4c-0.3-0.8,0.1-1.7,0.9-2c0.8-0.3,1.7,0.1,2,0.9L52,78.6
			C52.3,79.4,51.9,80.3,51.1,80.6z"/>
		<path class="st1" d="M60.1,52.2l-11.3,4.5c-0.8,0.3-1.7-0.1-2-0.9c-0.3-0.8,0.1-1.7,0.9-2l11.3-4.5c0.8-0.3,1.7,0.1,2,0.9
			C61.3,50.9,60.9,51.8,60.1,52.2z"/>
		<path class="st1" d="M79.1,51.7L51.3,62.8c-0.8,0.3-1.7-0.1-2-0.9c-0.3-0.8,0.1-1.7,0.9-2l27.8-11.1c0.8-0.3,1.7,0.1,2,0.9
			C80.3,50.5,79.9,51.4,79.1,51.7z"/>
		<path class="st1" d="M81.5,57.8L53.7,68.9c-0.8,0.3-1.7-0.1-2-0.9c-0.3-0.8,0.1-1.7,0.9-2l27.8-11.1c0.8-0.3,1.7,0.1,2,0.9
			C82.7,56.6,82.3,57.5,81.5,57.8z"/>
		<path class="st1" d="M77.8,66.4l-21.6,8.6c-0.8,0.3-1.7-0.1-2-0.9c-0.3-0.8,0.1-1.7,0.9-2l21.6-8.6c0.8-0.3,1.7,0.1,2,0.9
			C79,65.2,78.6,66.1,77.8,66.4z"/>
	</g>
	<g>
		<g id="directions-subway_4_">
			<path class="st1" d="M25.6,61.6c-5.3,2.1-9.4,4.5-7.7,8.7l4.6,11.5c0.9,2.3,3.6,3.5,5.9,2.5l-1.1,2.5l0.2,0.6l14.5-5.8l-0.2-0.6
				L39.3,80c2.3-0.9,3.5-3.6,2.5-5.9l-4.6-11.5C35.5,58.4,31,59.5,25.6,61.6z M27.5,81.9c-1,0.4-2.1-0.1-2.5-1.1
				c-0.4-1,0.1-2.1,1.1-2.5c1-0.4,2.1,0.1,2.5,1.1C28.9,80.3,28.4,81.5,27.5,81.9z M28.8,73l-6,2.4l-2.4-6l6-2.4L28.8,73z
				 M38.3,77.6c-1,0.4-2.1-0.1-2.5-1.1c-0.4-1,0.1-2.1,1.1-2.5s2.1,0.1,2.5,1.1C39.8,76,39.3,77.2,38.3,77.6z M37.2,69.6l-6,2.4
				l-2.4-6l6-2.4L37.2,69.6z"/>
		</g>
	</g>
</g>
</svg>
