<?xml version="1.0" encoding="utf-8"?>
<!-- Generator: Adobe Illustrator 22.0.1, SVG Export Plug-In . SVG Version: 6.00 Build 0)  -->
<svg version="1.1" id="Calque_1" xmlns="http://www.w3.org/2000/svg" xmlns:xlink="http://www.w3.org/1999/xlink" x="0px" y="0px"
	 viewBox="0 0 141.7 141.7" style="enable-background:new 0 0 141.7 141.7;" xml:space="preserve">
<style type="text/css">
	.st0{fill:#292B73;}
	.st1{fill:#F99F1B;}
	.st2{fill:#3953A4;}
</style>
<g>
	<path class="st0" d="M139.1,62.4l-0.1-16.9c-4.1-0.5-7.3-4-7.3-8.2L9.6,38c0,4.2-3.1,7.7-7.2,8.3l0.1,16.9c4.1,0.5,7.3,4,7.3,8.2
		l0,0c0,4.2-3.1,7.7-7.2,8.3l0.1,16.9c4.1,0.5,7.3,4,7.3,8.2l0,0l0,0l122.2-0.7l0,0l0,0c0-4.2,3.1-7.7,7.2-8.3L139.2,79
		c-4.1-0.5-7.3-4-7.3-8.2l0,0C131.9,66.5,135.1,63,139.1,62.4z"/>
	<g>
		<path class="st1" d="M57.3,89.7c-1.1,0-2.1-0.9-2.1-2L54.8,53c0-1.1,0.9-2.1,2-2.1c1.1,0,2.1,0.9,2.1,2l0.4,34.7
			C59.3,88.7,58.4,89.7,57.3,89.7z"/>
		<path class="st1" d="M81.9,59l-16,0.2c-1.1,0-2.1-0.9-2.1-2c0-1.1,0.9-2.1,2-2.1l16-0.2c1.1,0,2.1,0.9,2.1,2C84,58,83,59,81.9,59z
			"/>
		<path class="st1" d="M105.5,67.5L66,67.9c-1.1,0-2.1-0.9-2.1-2c0-1.1,0.9-2.1,2-2.1l39.5-0.4c1.1,0,2.1,0.9,2.1,2
			C107.5,66.5,106.6,67.4,105.5,67.5z"/>
		<path class="st1" d="M105.6,76.2l-39.5,0.4c-1.1,0-2.1-0.9-2.1-2c0-1.1,0.9-2.1,2-2.1l39.5-0.4c1.1,0,2.1,0.9,2.1,2
			C107.6,75.2,106.7,76.2,105.6,76.2z"/>
		<path class="st1" d="M96.9,85l-30.7,0.3c-1.1,0-2.1-0.9-2.1-2s0.9-2.1,2-2.1l30.7-0.3c1.1,0,2.1,0.9,2.1,2
			C99,84.1,98.1,85,96.9,85z"/>
	</g>
	<g>
		<g id="directions-subway_2_">
			<path class="st1" d="M35,54.2c-7.5,0.1-13.7,1-13.7,7l0.2,16.3c0,3.3,2.8,6,6.1,5.9L25,86.1l0,0.9l20.6-0.2l0-0.9L43,83.3
				c3.3,0,6-2.8,5.9-6.1l-0.2-16.3C48.7,54.9,42.5,54.1,35,54.2z M27.5,80c-1.4,0-2.6-1.2-2.6-2.5s1.2-2.6,2.5-2.6s2.6,1.2,2.6,2.5
				S28.9,80,27.5,80z M33.4,69.7l-8.6,0.1l-0.1-8.6l8.6-0.1L33.4,69.7z M43,79.9c-1.4,0-2.6-1.2-2.6-2.5c0-1.4,1.2-2.6,2.5-2.6
				c1.4,0,2.6,1.2,2.6,2.5C45.5,78.6,44.4,79.9,43,79.9z M45.4,69.5l-8.6,0.1l-0.1-8.6l8.6-0.1L45.4,69.5z"/>
		</g>
	</g>
	<g>
		<path class="st2" d="M111.8,44.4c-0.3-0.4-0.5-1-0.5-1.5l0-5.4c0-1.5,1.2-2.7,2.7-2.7c1.5,0,2.7,1.2,2.7,2.7l0,5.4
			c0,1.5-1.2,2.7-2.7,2.7C113.1,45.6,112.3,45.1,111.8,44.4z"/>
		<path class="st2" d="M112,89.2c-0.3-0.4-0.5-1-0.5-1.5l-0.1-11.2c0-1.5,1.2-2.7,2.7-2.7c1.5,0,2.7,1.2,2.7,2.7l0.1,11.2
			c0,1.5-1.2,2.7-2.7,2.7C113.3,90.4,112.5,89.9,112,89.2z M111.9,66.8c-0.3-0.4-0.5-1-0.5-1.5l-0.1-11.2c0-1.5,1.2-2.7,2.7-2.7
			c1.5,0,2.7,1.2,2.7,2.7l0.1,11.2c0,1.5-1.2,2.7-2.7,2.7C113.2,68,112.4,67.5,111.9,66.8z"/>
		<path class="st2" d="M112.1,105.9c-0.3-0.4-0.5-1-0.5-1.5l0-5.4c0-1.5,1.2-2.7,2.7-2.7c1.5,0,2.7,1.2,2.7,2.7l0,5.4
			c0,1.5-1.2,2.7-2.7,2.7C113.4,107,112.6,106.6,112.1,105.9z"/>
	</g>
</g>
</svg>
