<?xml version="1.0" encoding="utf-8"?>
<!-- Generator: Adobe Illustrator 22.0.1, SVG Export Plug-In . SVG Version: 6.00 Build 0)  -->
<svg version="1.1" id="Calque_1" xmlns="http://www.w3.org/2000/svg" xmlns:xlink="http://www.w3.org/1999/xlink" x="0px" y="0px"
	 viewBox="0 0 141.7 141.7" style="enable-background:new 0 0 141.7 141.7;" xml:space="preserve">
<style type="text/css">
	.st0{fill:#9BD4EE;}
	.st1{fill:#838384;}
	.st2{opacity:0.1;fill:#010101;enable-background:new    ;}
	.st3{fill:#C0E1F7;}
	.st4{fill:#5BA3D9;}
	.st5{fill:#3F92C6;}
</style>
<g>
	<path class="st0" d="M140,83.8l-0.1-12.7c-3.1-0.4-5.5-3-5.5-6.2l-92.3,0.5c0,3.2-2.3,5.9-5.4,6.3l0.1,12.7c3.1,0.4,5.5,3,5.5,6.2
		l0,0c0,3.2-2.3,5.9-5.4,6.3l0.1,12.7c3.1,0.4,5.5,3,5.5,6.2l0,0l0,0l92.3-0.5l0,0l0,0c0-3.2,2.3-5.9,5.4-6.3l-0.1-12.7
		c-3.1-0.4-5.5-3-5.5-6.2l0,0C134.6,86.9,136.9,84.3,140,83.8z"/>
	<g>
		<path class="st1" d="M78.2,104.4c-0.9,0-1.6-0.7-1.6-1.5l-0.3-26.2c0-0.9,0.7-1.6,1.5-1.6s1.6,0.7,1.6,1.5l0.3,26.2
			C79.7,103.7,79,104.4,78.2,104.4z"/>
		<path class="st1" d="M96.8,81.2l-12.1,0.1c-0.9,0-1.6-0.7-1.6-1.5c0-0.9,0.7-1.6,1.5-1.6l12.1-0.1c0.9,0,1.6,0.7,1.6,1.5
			C98.3,80.5,97.6,81.2,96.8,81.2z"/>
		<path class="st1" d="M114.6,87.6l-29.8,0.3c-0.9,0-1.6-0.7-1.6-1.5c0-0.9,0.7-1.6,1.5-1.6l29.8-0.3c0.9,0,1.6,0.7,1.6,1.5
			C116.1,86.9,115.4,87.6,114.6,87.6z"/>
		<path class="st1" d="M114.7,94.2l-29.8,0.3c-0.9,0-1.6-0.7-1.6-1.5c0-0.9,0.7-1.6,1.5-1.6l29.8-0.3c0.9,0,1.6,0.7,1.6,1.5
			C116.2,93.5,115.5,94.2,114.7,94.2z"/>
		<path class="st1" d="M108.1,100.9l-23.2,0.2c-0.9,0-1.6-0.7-1.6-1.5S84,98,84.9,98l23.2-0.2c0.9,0,1.6,0.7,1.6,1.5
			S109,100.9,108.1,100.9z"/>
	</g>
	<g>
		<g id="directions-subway_16_">
			<path class="st1" d="M61.4,77.6c-5.7,0.1-10.4,0.8-10.3,5.3l0.1,12.3c0,2.5,2.1,4.5,4.6,4.5l-1.9,2l0,0.6l15.5-0.2l0-0.6l-2-1.9
				c2.5,0,4.5-2.1,4.5-4.6l-0.1-12.3C71.7,78.2,67.1,77.6,61.4,77.6z M55.7,97.1c-1,0-2-0.9-2-1.9c0-1,0.9-2,1.9-2s2,0.9,2,1.9
				S56.8,97.1,55.7,97.1z M60.2,89.3l-6.5,0.1l-0.1-6.5l6.5-0.1L60.2,89.3z M67.4,97c-1,0-2-0.9-2-1.9c0-1,0.9-2,1.9-2
				c1,0,2,0.9,2,1.9S68.4,97,67.4,97z M69.3,89.2l-6.5,0.1l-0.1-6.5l6.5-0.1L69.3,89.2z"/>
		</g>
	</g>
	<path class="st2" d="M37,107l80.8-32.3l-2.4-5.9l4.8-2.7l-0.4-1.1l-77.5,0.4c0,3.2-2.3,5.9-5.4,6.3l0.1,12.7c3.1,0.4,5.5,3,5.5,6.2
		l0,0c0,3.2-2.3,5.9-5.4,6.3L37,107z"/>
	<path class="st3" d="M102.2,39.6l-4.7-11.8c-3,0.8-6.2-0.8-7.4-3.8L4.4,58.2c1.2,3,0,6.3-2.7,7.8l4.7,11.8c3-0.8,6.2,0.8,7.4,3.8
		l0,0c1.2,3,0,6.3-2.7,7.8l4.7,11.8c3-0.8,6.2,0.8,7.4,3.8l0,0l0,0l85.7-34.3l0,0l0,0c-1.2-3,0-6.3,2.7-7.8l-4.7-11.8
		c-3,0.8-6.2-0.8-7.4-3.8l0,0C98.3,44.4,99.5,41.1,102.2,39.6z"/>
	<g>
		<path class="st4" d="M77.4,33.9c-0.1-0.1-0.2-0.3-0.2-0.4l-1.5-3.8c-0.4-1.1,0.1-2.2,1.1-2.7c1.1-0.4,2.2,0.1,2.7,1.1L81,32
			c0.4,1.1-0.1,2.2-1.1,2.7C79,35,78,34.7,77.4,33.9z"/>
		<path class="st4" d="M90,65.3c-0.1-0.1-0.2-0.3-0.2-0.4l-3.1-7.9c-0.4-1.1,0.1-2.2,1.1-2.7c1.1-0.4,2.2,0.1,2.7,1.1l3.1,7.9
			c0.4,1.1-0.1,2.2-1.1,2.7C91.5,66.4,90.5,66.1,90,65.3z M83.7,49.6c-0.1-0.1-0.2-0.3-0.2-0.4l-3.1-7.9c-0.4-1.1,0.1-2.2,1.1-2.7
			c1.1-0.4,2.2,0.1,2.7,1.1l3.1,7.9c0.4,1.1-0.1,2.2-1.1,2.7C85.3,50.7,84.2,50.4,83.7,49.6z"/>
		<path class="st4" d="M94.7,77c-0.1-0.1-0.2-0.3-0.2-0.4l-1.5-3.8c-0.4-1.1,0.1-2.2,1.1-2.7c1.1-0.4,2.2,0.1,2.7,1.1l1.5,3.8
			c0.4,1.1-0.1,2.2-1.1,2.7C96.2,78.1,95.2,77.8,94.7,77z"/>
	</g>
	<g>
		<path class="st5" d="M119.3,70.2c-0.2-0.3-0.4-0.7-0.4-1.2l0-4.1c0-1.1,0.9-2.1,2-2.1c1.1,0,2.1,0.9,2.1,2l0,4.1
			c0,1.1-0.9,2.1-2,2.1C120.3,71.1,119.7,70.7,119.3,70.2z"/>
		<path class="st5" d="M119.5,104.1c-0.2-0.3-0.4-0.7-0.4-1.2l0-8.5c0-1.1,0.9-2.1,2-2.1c1.1,0,2.1,0.9,2.1,2l0,8.5
			c0,1.1-0.9,2.1-2,2.1C120.5,104.9,119.9,104.6,119.5,104.1z M119.4,87.1c-0.2-0.3-0.4-0.7-0.4-1.2l0-8.5c0-1.1,0.9-2.1,2-2.1
			c1.1,0,2.1,0.9,2.1,2l0,8.5c0,1.1-0.9,2.1-2,2.1C120.4,88,119.8,87.7,119.4,87.1z"/>
		<path class="st5" d="M119.6,116.6c-0.2-0.3-0.4-0.7-0.4-1.2l0-4.1c0-1.1,0.9-2.1,2-2.1c1.1,0,2.1,0.9,2.1,2l0,4.1
			c0,1.1-0.9,2.1-2,2.1C120.6,117.5,120,117.1,119.6,116.6z"/>
	</g>
	<g>
		<path class="st1" d="M51.2,80.4c-0.8,0.3-1.7-0.1-2-0.9l-9.7-24.3c-0.3-0.8,0.1-1.7,0.9-2s1.7,0.1,2,0.9L52,78.4
			C52.4,79.2,52,80.1,51.2,80.4z"/>
		<path class="st1" d="M60.2,52.1l-11.2,4.5c-0.8,0.3-1.7-0.1-2-0.9c-0.3-0.8,0.1-1.7,0.9-2L59,49.2c0.8-0.3,1.7,0.1,2,0.9
			C61.3,50.9,61,51.8,60.2,52.1z"/>
		<path class="st1" d="M79.1,51.6L51.4,62.7c-0.8,0.3-1.7-0.1-2-0.9c-0.3-0.8,0.1-1.7,0.9-2l27.7-11.1c0.8-0.3,1.7,0.1,2,0.9
			C80.3,50.4,79.9,51.3,79.1,51.6z"/>
		<path class="st1" d="M81.5,57.7L53.8,68.8c-0.8,0.3-1.7-0.1-2-0.9c-0.3-0.8,0.1-1.7,0.9-2l27.7-11.1c0.8-0.3,1.7,0.1,2,0.9
			C82.7,56.5,82.3,57.4,81.5,57.7z"/>
		<path class="st1" d="M77.8,66.3l-21.6,8.6c-0.8,0.3-1.7-0.1-2-0.9c-0.3-0.8,0.1-1.7,0.9-2l21.6-8.6c0.8-0.3,1.7,0.1,2,0.9
			C79,65.1,78.6,66,77.8,66.3z"/>
	</g>
	<g>
		<g id="directions-subway_15_">
			<path class="st1" d="M25.8,61.5c-5.3,2.1-9.4,4.4-7.7,8.7l4.6,11.4c0.9,2.3,3.6,3.4,5.9,2.5l-1.1,2.5l0.2,0.6l14.4-5.8l-0.2-0.6
				l-2.5-1.1c2.3-0.9,3.4-3.6,2.5-5.9l-4.6-11.4C35.7,58.3,31.1,59.4,25.8,61.5z M27.6,81.7c-1,0.4-2.1-0.1-2.5-1.1
				c-0.4-1,0.1-2.1,1.1-2.5c1-0.4,2.1,0.1,2.5,1.1C29.1,80.2,28.6,81.3,27.6,81.7z M28.9,72.8l-6,2.4l-2.4-6l6-2.4L28.9,72.8z
				 M38.5,77.4c-1,0.4-2.1-0.1-2.5-1.1c-0.4-1,0.1-2.1,1.1-2.5c1-0.4,2.1,0.1,2.5,1.1S39.4,77,38.5,77.4z M37.4,69.5l-6,2.4l-2.4-6
				l6-2.4L37.4,69.5z"/>
		</g>
	</g>
</g>
</svg>
