<?xml version="1.0" encoding="utf-8"?>
<!-- Generator: Adobe Illustrator 22.0.1, SVG Export Plug-In . SVG Version: 6.00 Build 0)  -->
<svg version="1.1" id="Calque_1" xmlns="http://www.w3.org/2000/svg" xmlns:xlink="http://www.w3.org/1999/xlink" x="0px" y="0px"
	 viewBox="0 0 141.7 141.7" style="enable-background:new 0 0 141.7 141.7;" xml:space="preserve">
<style type="text/css">
	.st0{fill:#C0E1F7;}
	.st1{fill:#838384;}
	.st2{fill:#5BA3D9;}
	.st3{fill:#F99F1B;}
</style>
<g>
	<g>
		<path class="st0" d="M138.8,53.1l-0.1-16.8c-4.1-0.5-7.2-4-7.2-8.2L9.9,28.8c0,4.2-3.1,7.7-7.1,8.3l0.1,16.8
			c4.1,0.5,7.2,4,7.2,8.2l0,0c0,4.2-3.1,7.7-7.1,8.3L3,87.1c4.1,0.5,7.2,4,7.2,8.2l0,0l0,0l121.6-0.7l0,0l0,0c0-4.2,3.1-7.7,7.1-8.3
			l-0.1-16.8c-4.1-0.5-7.2-4-7.2-8.2l0,0C131.6,57.2,134.8,53.7,138.8,53.1z"/>
		<g>
			<path class="st1" d="M57.3,80.2c-1.1,0-2.1-0.9-2.1-2l-0.4-34.5c0-1.1,0.9-2.1,2-2.1c1.1,0,2.1,0.9,2.1,2l0.4,34.5
				C59.4,79.3,58.5,80.2,57.3,80.2z"/>
			<path class="st1" d="M81.9,49.7l-15.9,0.2c-1.1,0-2.1-0.9-2.1-2c0-1.1,0.9-2.1,2-2.1l15.9-0.2c1.1,0,2.1,0.9,2.1,2
				C83.9,48.7,83,49.6,81.9,49.7z"/>
			<path class="st1" d="M105.3,58.1L66,58.5c-1.1,0-2.1-0.9-2.1-2c0-1.1,0.9-2.1,2-2.1l39.3-0.4c1.1,0,2.1,0.9,2.1,2
				C107.4,57.2,106.4,58.1,105.3,58.1z"/>
			<path class="st1" d="M105.4,66.8l-39.3,0.4c-1.1,0-2.1-0.9-2.1-2c0-1.1,0.9-2.1,2-2.1l39.3-0.4c1.1,0,2.1,0.9,2.1,2
				C107.4,65.8,106.5,66.8,105.4,66.8z"/>
			<path class="st1" d="M96.8,75.6l-30.6,0.3c-1.1,0-2.1-0.9-2.1-2c0-1.1,0.9-2.1,2-2.1l30.6-0.3c1.1,0,2.1,0.9,2.1,2
				C98.8,74.6,97.9,75.5,96.8,75.6z"/>
		</g>
		<g>
			<g id="directions-subway_12_">
				<path class="st1" d="M35.2,44.9c-7.5,0.1-13.6,1-13.6,7l0.2,16.2c0,3.2,2.8,5.9,6,5.9l-2.5,2.6l0,0.9l20.5-0.2l0-0.9l-2.6-2.5
					c3.2,0,5.9-2.8,5.9-6l-0.2-16.2C48.8,45.6,42.7,44.8,35.2,44.9z M27.8,70.6c-1.4,0-2.6-1.2-2.6-2.5s1.2-2.6,2.5-2.6
					c1.4,0,2.6,1.2,2.6,2.5C30.3,69.4,29.1,70.6,27.8,70.6z M33.6,60.3l-8.5,0.1L25,51.8l8.5-0.1L33.6,60.3z M43.1,70.4
					c-1.4,0-2.6-1.2-2.6-2.5s1.2-2.6,2.5-2.6c1.4,0,2.6,1.2,2.6,2.5C45.7,69.2,44.5,70.4,43.1,70.4z M45.6,60.2L37,60.3l-0.1-8.5
					l8.5-0.1L45.6,60.2z"/>
			</g>
		</g>
		<g>
			<path class="st2" d="M111.6,35.1c-0.3-0.4-0.5-1-0.5-1.5l0-5.4c0-1.5,1.2-2.7,2.7-2.7c1.5,0,2.7,1.2,2.7,2.7l0,5.4
				c0,1.5-1.2,2.7-2.7,2.7C112.9,36.3,112.1,35.8,111.6,35.1z"/>
			<path class="st2" d="M111.8,79.8c-0.3-0.4-0.5-1-0.5-1.5l-0.1-11.2c0-1.5,1.2-2.7,2.7-2.7c1.5,0,2.7,1.2,2.7,2.7l0.1,11.2
				c0,1.5-1.2,2.7-2.7,2.7C113.1,80.9,112.3,80.5,111.8,79.8z M111.7,57.5c-0.3-0.4-0.5-1-0.5-1.5l-0.1-11.2c0-1.5,1.2-2.7,2.7-2.7
				c1.5,0,2.7,1.2,2.7,2.7l0.1,11.2c0,1.5-1.2,2.7-2.7,2.7C113,58.6,112.2,58.2,111.7,57.5z"/>
			<path class="st2" d="M111.9,96.3c-0.3-0.4-0.5-1-0.5-1.5l0-5.4c0-1.5,1.2-2.7,2.7-2.7c1.5,0,2.7,1.2,2.7,2.7l0,5.4
				c0,1.5-1.2,2.7-2.7,2.7C113.2,97.5,112.4,97,111.9,96.3z"/>
		</g>
	</g>
	<g>
		<path class="st3" d="M62.4,101.2c1.8,2.2,3.5,4.2,5.2,6.3c-8.1,10.1-19,11.7-27.5,3.9c-5.8-5.2-6.7-12-4.4-19.1
			c2.3-6.8,7.3-10.6,14.5-11.4c8.8-1,15.5,2.8,20.9,9.4c3,3.7,5.8,7.5,8.7,11.2c2,2.5,4.4,4.3,7.7,4.8c4.5,0.7,9.1-2.4,9.7-6.6
			c0.7-5-2.7-9.5-7.5-9.9c-2-0.2-3.9,0.6-5.5,1.8c-1.6,1.2-3,2.5-4.7,3.9c-1.6-2-3.3-4.1-5-6.2c4.2-4.9,8.9-8.8,15.8-8.7
			c9,0.2,16.3,7.3,16.9,16.3c0.6,9.4-5.2,17.4-14.4,18.9c-8.2,1.4-15.1-1.3-20.5-7.7c-3.3-3.9-6.5-7.9-9.8-11.9
			c-2.2-2.6-4.5-5.1-8.1-5.8c-3.6-0.7-7.2,1.1-8.9,4.5c-1.7,3.4-0.9,7.6,1.9,10c2.9,2.5,7,2.8,10,0.5
			C59.1,104.3,60.6,102.7,62.4,101.2z"/>
	</g>
</g>
</svg>
