<?xml version="1.0" encoding="utf-8"?>
<!-- Generator: Adobe Illustrator 22.0.1, SVG Export Plug-In . SVG Version: 6.00 Build 0)  -->
<svg version="1.1" id="Calque_1" xmlns="http://www.w3.org/2000/svg" xmlns:xlink="http://www.w3.org/1999/xlink" x="0px" y="0px"
	 viewBox="0 0 141.7 141.7" style="enable-background:new 0 0 141.7 141.7;" xml:space="preserve">
<style type="text/css">
	.st0{fill:#C0E1F7;}
	.st1{fill:#838384;}
	.st2{fill:#5BA3D9;}
</style>
<g>
	<path class="st0" d="M139.1,62.3l-0.1-16.9c-4.1-0.5-7.3-4-7.3-8.2L9.6,37.9c0,4.2-3.1,7.7-7.2,8.3l0.1,16.9c4.1,0.5,7.3,4,7.3,8.2
		l0,0c0,4.2-3.1,7.7-7.2,8.3l0.1,16.9c4.1,0.5,7.3,4,7.3,8.2l0,0l0,0l122.2-0.7l0,0l0,0c0-4.2,3.1-7.7,7.2-8.3l-0.1-16.9
		c-4.1-0.5-7.3-4-7.3-8.2l0,0C131.9,66.4,135.1,62.9,139.1,62.3z"/>
	<g>
		<path class="st1" d="M57.3,89.6c-1.1,0-2.1-0.9-2.1-2l-0.4-34.7c0-1.1,0.9-2.1,2-2.1c1.1,0,2.1,0.9,2.1,2l0.4,34.7
			C59.3,88.6,58.4,89.6,57.3,89.6z"/>
		<path class="st1" d="M81.9,58.9l-16,0.2c-1.1,0-2.1-0.9-2.1-2c0-1.1,0.9-2.1,2-2.1l16-0.2c1.1,0,2.1,0.9,2.1,2
			C84,57.9,83,58.9,81.9,58.9z"/>
		<path class="st1" d="M105.5,67.4L66,67.8c-1.1,0-2.1-0.9-2.1-2c0-1.1,0.9-2.1,2-2.1l39.5-0.4c1.1,0,2.1,0.9,2.1,2
			C107.5,66.4,106.6,67.3,105.5,67.4z"/>
		<path class="st1" d="M105.6,76.1l-39.5,0.4c-1.1,0-2.1-0.9-2.1-2c0-1.1,0.9-2.1,2-2.1l39.5-0.4c1.1,0,2.1,0.9,2.1,2
			C107.6,75.1,106.7,76.1,105.6,76.1z"/>
		<path class="st1" d="M96.9,84.9l-30.7,0.3c-1.1,0-2.1-0.9-2.1-2c0-1.1,0.9-2.1,2-2.1l30.7-0.3c1.1,0,2.1,0.9,2.1,2
			S98.1,84.9,96.9,84.9z"/>
	</g>
	<g>
		<g id="directions-subway_13_">
			<path class="st1" d="M35,54.1c-7.5,0.1-13.7,1-13.7,7l0.2,16.3c0,3.3,2.8,6,6.1,5.9L25,86l0,0.9l20.6-0.2l0-0.9L43,83.2
				c3.3,0,6-2.8,5.9-6.1l-0.2-16.3C48.7,54.8,42.5,54,35,54.1z M27.5,79.9c-1.4,0-2.6-1.2-2.6-2.5c0-1.4,1.2-2.6,2.5-2.6
				c1.4,0,2.6,1.2,2.6,2.5C30.1,78.7,28.9,79.9,27.5,79.9z M33.4,69.6l-8.6,0.1l-0.1-8.6l8.6-0.1L33.4,69.6z M43,79.8
				c-1.4,0-2.6-1.2-2.6-2.5c0-1.4,1.2-2.6,2.5-2.6c1.4,0,2.6,1.2,2.6,2.5C45.5,78.5,44.4,79.8,43,79.8z M45.4,69.4l-8.6,0.1L36.8,61
				l8.6-0.1L45.4,69.4z"/>
		</g>
	</g>
	<g>
		<path class="st2" d="M111.8,44.3c-0.3-0.4-0.5-1-0.5-1.5l0-5.4c0-1.5,1.2-2.7,2.7-2.7c1.5,0,2.7,1.2,2.7,2.7l0,5.4
			c0,1.5-1.2,2.7-2.7,2.7C113.1,45.5,112.3,45,111.8,44.3z"/>
		<path class="st2" d="M112,89.1c-0.3-0.4-0.5-1-0.5-1.5l-0.1-11.2c0-1.5,1.2-2.7,2.7-2.7c1.5,0,2.7,1.2,2.7,2.7l0.1,11.2
			c0,1.5-1.2,2.7-2.7,2.7C113.3,90.3,112.5,89.8,112,89.1z M111.9,66.7c-0.3-0.4-0.5-1-0.5-1.5L111.4,54c0-1.5,1.2-2.7,2.7-2.7
			c1.5,0,2.7,1.2,2.7,2.7l0.1,11.2c0,1.5-1.2,2.7-2.7,2.7C113.2,67.9,112.4,67.4,111.9,66.7z"/>
		<path class="st2" d="M112.1,105.8c-0.3-0.4-0.5-1-0.5-1.5l0-5.4c0-1.5,1.2-2.7,2.7-2.7c1.5,0,2.7,1.2,2.7,2.7l0,5.4
			c0,1.5-1.2,2.7-2.7,2.7C113.4,106.9,112.6,106.5,112.1,105.8z"/>
	</g>
</g>
</svg>
