<?xml version="1.0" encoding="utf-8"?>
<!-- Generator: Adobe Illustrator 22.0.1, SVG Export Plug-In . SVG Version: 6.00 Build 0)  -->
<svg version="1.1" id="Calque_1" xmlns="http://www.w3.org/2000/svg" xmlns:xlink="http://www.w3.org/1999/xlink" x="0px" y="0px"
	 viewBox="0 0 141.7 141.7" style="enable-background:new 0 0 141.7 141.7;" xml:space="preserve">
<style type="text/css">
	.st0{fill:#2A3C84;}
	.st1{fill:#272B63;}
	.st2{fill:#F99F1B;}
	.st3{fill:#E18C26;}
</style>
<g>
	<g>
		<path class="st0" d="M105.2,108.5c-5.6,18.1-22.5,31.2-42.4,31.2c-24.5,0-44.4-19.9-44.4-44.4C18.4,70.9,38.3,51,62.8,51v40.4
			h38.1L105.2,108.5z"/>
		<path class="st1" d="M105.2,108.5c-5.6,18.1-22.5,31.2-42.4,31.2V91.3h38.1L105.2,108.5z"/>
		<path class="st2" d="M91,95.3c0,15.6-12.7,28.2-28.2,28.2s-28.2-12.7-28.2-28.2s12.7-28.2,28.2-28.2v24.2h27.8
			C90.8,92.6,91,94,91,95.3z"/>
		<path class="st3" d="M91,95.3c0,15.6-12.7,28.2-28.2,28.2V91.3h27.8C90.8,92.6,91,94,91,95.3z"/>
		<path class="st0" d="M74.9,14.6c0,6.7-5.4,12.1-12.1,12.1s-12.1-5.4-12.1-12.1C50.7,7.9,56.1,2,62.8,2S74.9,7.9,74.9,14.6z"/>
		<path class="st0" d="M123.3,115.5L123.3,115.5c0,4.5-3.6,8.1-8.1,8.1H98.9l-6.1-24.2H54.7l0-64.2c0-4.2,3.1-8,7.2-8.4
			c4.8-0.5,8.9,3.3,8.9,8v48.4h34.5l6.1,24.2h3.8C119.7,107.5,123.3,111.1,123.3,115.5z"/>
		<g>
			<g>
				<path class="st1" d="M123.3,115.5L123.3,115.5c0,4.5-3.6,8.1-8.1,8.1H98.9l-6.1-24.2h-30V26.7c4.4,0,8.1,3.6,8.1,8.1v48.4h34.5
					l6.1,24.2h3.8C119.7,107.5,123.3,111.1,123.3,115.5z"/>
				<path class="st1" d="M62.8,26.7V2c6.7,0,12.1,5.9,12.1,12.6C74.9,21.3,69.5,26.7,62.8,26.7z"/>
			</g>
		</g>
	</g>
</g>
</svg>
