<?xml version="1.0" encoding="utf-8"?>
<!-- Generator: Adobe Illustrator 22.0.1, SVG Export Plug-In . SVG Version: 6.00 Build 0)  -->
<svg version="1.1" id="Calque_1" xmlns="http://www.w3.org/2000/svg" xmlns:xlink="http://www.w3.org/1999/xlink" x="0px" y="0px"
	 viewBox="0 0 141.7 141.7" style="enable-background:new 0 0 141.7 141.7;" xml:space="preserve">
<style type="text/css">
	.st0{fill:#F99F1B;}
	.st1{fill:#5B5B5B;}
	.st2{fill:#F47822;}
	.st3{fill:#454545;}
</style>
<g>
	<g>
		<g id="XMLID_1_">
			<path id="XMLID_8_" class="st0" d="M132.8,109.3H9.1c-3.3,0-5.9-2.9-5.9-6.4V38.8c0-3.5,2.6-6.4,5.9-6.4h123.8
				c3.3,0,5.9,2.9,5.9,6.4v64.1C138.7,106.4,136.1,109.3,132.8,109.3z"/>
			<path id="XMLID_7_" class="st1" d="M48.5,98.1L48.5,98.1c0,0.9-0.7,1.6-1.6,1.6h-32c-0.9,0-1.6-0.7-1.6-1.6l0,0
				c0-0.9,0.7-1.6,1.6-1.6h32C47.8,96.5,48.5,97.2,48.5,98.1z M62.9,90.1H14.9c-0.9,0-1.6,0.7-1.6,1.6l0,0c0,0.9,0.7,1.6,1.6,1.6
				h48.1c0.9,0,1.6-0.7,1.6-1.6l0,0C64.5,90.8,63.8,90.1,62.9,90.1z"/>
			<path id="XMLID_6_" class="st2" d="M138.7,38.8v64.1c0,3.5-2.9,6.4-6.4,6.4H86.5V83.5c0.5,0.1,1.1,0.1,1.6,0.1
				c6.2,0,11.2-5,11.2-11.2s-5-11.2-11.2-11.2c-0.5,0-1.1,0-1.6,0.1v-29h45.8C135.8,32.4,138.7,35.3,138.7,38.8z"/>
			<path id="XMLID_5_" class="st3" d="M125.9,53.2L125.9,53.2c0,0.9-0.7,1.6-1.6,1.6h-16c-0.9,0-1.6-0.7-1.6-1.6l0,0
				c0-0.9,0.7-1.6,1.6-1.6h16C125.2,51.6,125.9,52.3,125.9,53.2z M124.3,45.2h-16c-0.9,0-1.6,0.7-1.6,1.6l0,0c0,0.9,0.7,1.6,1.6,1.6
				h16c0.9,0,1.6-0.7,1.6-1.6l0,0C125.9,45.9,125.2,45.2,124.3,45.2z M124.3,96.5h-16c-0.9,0-1.6,0.7-1.6,1.6l0,0
				c0,0.9,0.7,1.6,1.6,1.6h16c0.9,0,1.6-0.7,1.6-1.6l0,0C125.9,97.2,125.2,96.5,124.3,96.5z M124.3,90.1h-16c-0.9,0-1.6,0.7-1.6,1.6
				l0,0c0,0.9,0.7,1.6,1.6,1.6h16c0.9,0,1.6-0.7,1.6-1.6l0,0C125.9,90.8,125.2,90.1,124.3,90.1z"/>
		</g>
	</g>
	<g>
		<g id="directions-subway_11_">
			<path class="st1" d="M38.2,47.6c-7.9,0-14.4,0.9-14.4,7.2l0,17.1c0,3.4,2.9,6.3,6.3,6.3l-2.7,2.7v0.9l21.6,0v-0.9l-2.7-2.7
				c3.4,0,6.3-2.9,6.3-6.3l0-17.1C52.6,48.5,46.1,47.6,38.2,47.6z M30.1,74.6c-1.4,0-2.7-1.3-2.7-2.7c0-1.4,1.3-2.7,2.7-2.7
				s2.7,1.3,2.7,2.7C32.8,73.3,31.5,74.6,30.1,74.6z M36.4,63.8l-9,0l0-9l9,0L36.4,63.8z M46.3,74.6c-1.4,0-2.7-1.3-2.7-2.7
				s1.3-2.7,2.7-2.7c1.4,0,2.7,1.3,2.7,2.7C49,73.3,47.7,74.6,46.3,74.6z M49,63.8l-9,0l0-9l9,0L49,63.8z"/>
		</g>
	</g>
</g>
</svg>
