<?xml version="1.0" encoding="utf-8"?>
<!-- Generator: Adobe Illustrator 22.0.1, SVG Export Plug-In . SVG Version: 6.00 Build 0)  -->
<svg version="1.1" id="Calque_1" xmlns="http://www.w3.org/2000/svg" xmlns:xlink="http://www.w3.org/1999/xlink" x="0px" y="0px"
	 viewBox="0 0 141.7 141.7" style="enable-background:new 0 0 141.7 141.7;" xml:space="preserve">
<style type="text/css">
	.st0{fill:#292B73;}
	.st1{fill:#FFFFFF;}
	.st2{fill:#1A1E47;}
	.st3{fill:#F99F1B;}
</style>
<g>
	<path id="XMLID_45_" class="st0" d="M133.1,109.5H8.7c-3.3,0-5.9-2.9-5.9-6.4V38.7c0-3.6,2.7-6.4,5.9-6.4h124.4
		c3.3,0,5.9,2.9,5.9,6.4v64.4C139,106.6,136.3,109.5,133.1,109.5z"/>
	<path id="XMLID_44_" class="st1" d="M48.3,98.2L48.3,98.2c0,0.9-0.7,1.6-1.6,1.6H14.5c-0.9,0-1.6-0.7-1.6-1.6l0,0
		c0-0.9,0.7-1.6,1.6-1.6h32.2C47.6,96.6,48.3,97.4,48.3,98.2z M62.8,90.2H14.5c-0.9,0-1.6,0.7-1.6,1.6l0,0c0,0.9,0.7,1.6,1.6,1.6
		h48.3c0.9,0,1.6-0.7,1.6-1.6l0,0C64.4,90.9,63.7,90.2,62.8,90.2z"/>
	<path id="XMLID_42_" class="st2" d="M139,38.7v64.4c0,3.6-2.9,6.4-6.4,6.4H86.5V83.6c0.5,0.1,1.1,0.1,1.6,0.1
		c6.2,0,11.3-5,11.3-11.3s-5-11.3-11.3-11.3c-0.5,0-1.1,0-1.6,0.1V32.2h46.1C136.1,32.2,139,35.1,139,38.7z"/>
	<path id="XMLID_41_" class="st1" d="M126.1,53.1L126.1,53.1c0,0.9-0.7,1.6-1.6,1.6h-16.1c-0.9,0-1.6-0.7-1.6-1.6l0,0
		c0-0.9,0.7-1.6,1.6-1.6h16.1C125.4,51.5,126.1,52.3,126.1,53.1z M124.5,45.1h-16.1c-0.9,0-1.6,0.7-1.6,1.6l0,0
		c0,0.9,0.7,1.6,1.6,1.6h16.1c0.9,0,1.6-0.7,1.6-1.6l0,0C126.1,45.8,125.4,45.1,124.5,45.1z M124.5,96.6h-16.1
		c-0.9,0-1.6,0.7-1.6,1.6l0,0c0,0.9,0.7,1.6,1.6,1.6h16.1c0.9,0,1.6-0.7,1.6-1.6l0,0C126.1,97.4,125.4,96.6,124.5,96.6z M124.5,90.2
		h-16.1c-0.9,0-1.6,0.7-1.6,1.6l0,0c0,0.9,0.7,1.6,1.6,1.6h16.1c0.9,0,1.6-0.7,1.6-1.6l0,0C126.1,90.9,125.4,90.2,124.5,90.2z"/>
	<g>
		<g id="directions-subway_3_">
			<path class="st3" d="M37.9,47.5c-8,0-14.5,0.9-14.5,7.2l0,17.2c0,3.4,2.9,6.3,6.3,6.3l-2.7,2.7v0.9l21.7,0v-0.9l-2.7-2.7
				c3.4,0,6.3-2.9,6.3-6.3l0-17.2C52.4,48.4,45.9,47.5,37.9,47.5z M29.8,74.6c-1.4,0-2.7-1.3-2.7-2.7c0-1.4,1.3-2.7,2.7-2.7
				c1.4,0,2.7,1.3,2.7,2.7S31.2,74.6,29.8,74.6z M36.1,63.8l-9,0l0-9l9,0L36.1,63.8z M46.1,74.6c-1.4,0-2.7-1.3-2.7-2.7
				s1.3-2.7,2.7-2.7s2.7,1.3,2.7,2.7S47.5,74.6,46.1,74.6z M48.8,63.8l-9,0l0-9l9,0L48.8,63.8z"/>
		</g>
	</g>
</g>
</svg>
