<?xml version="1.0" encoding="utf-8"?>
<!-- Generator: Adobe Illustrator 22.0.1, SVG Export Plug-In . SVG Version: 6.00 Build 0)  -->
<svg version="1.1" id="Calque_1" xmlns="http://www.w3.org/2000/svg" xmlns:xlink="http://www.w3.org/1999/xlink" x="0px" y="0px"
	 viewBox="0 0 141.7 141.7" style="enable-background:new 0 0 141.7 141.7;" xml:space="preserve">
<style type="text/css">
	.st0{fill:#292B73;}
</style>
<g>
	<g>
		<g>
			<path class="st0" d="M27,55.4l4.9,2.6l4.5-8.5l4.5,6.5l6.6-10.2l4,1.9l1.2-0.5c0.1-0.4,0.3-0.8,0.4-1.2L78.9,55
				c1.9,0.6,3.9-0.3,4.5-2.2l2.6-7.4c0.6-1.9-0.3-3.9-2.2-4.5l-22.6-7.8c0-0.1,0.1-0.2,0.1-0.2c4.8-5.2,10.5-8.8,17.9-9.1
				c8.6-0.4,16.2,2.4,23.5,6.7c3.4,2,6.6,4.4,10,6.5c2.5,1.5,4.3,1.3,6.3-0.8c2.3-2.4,4.6-4.9,6.8-7.5c2.1-2.4,2.1-4.6,0-7
				c-0.5-0.6-1.1-1.2-1.7-1.7c-9.4-8-20.1-13.5-32.3-15.6c-8.6-1.5-17.2-1.4-25.5,1.5C55.8,9.3,47.5,15.9,41,24.8l-0.8,1l-11.6-4
				c-1.9-0.6-3.9,0.3-4.5,2.2l-2.6,7.4c-0.6,1.9,0.3,3.9,2.2,4.5l9.1,3.2c-0.7,2-1.4,4-2.1,6l-9.1-3.2c-1.9-0.6-3.9,0.3-4.5,2.2
				l-2.6,7.4c-0.6,1.9,0.3,3.9,2.2,4.5l6.4,2.2L27,55.4z"/>
			<path class="st0" d="M123.9,120.8c-1.7-2.9-3.5-5.8-5.4-8.7c-1.7-2.5-3.4-3.1-6.3-2c-3.7,1.5-7.2,3.2-10.9,4.5
				c-7.1,2.6-14.5,3.9-22.1,2.7c-9.5-1.5-15.4-7.3-19.6-15.4l24.7-3.7c1.9-0.3,3.3-2.1,3-4L86,86.5c-0.3-1.9-2.1-3.3-4-3l-27,4.1
				c-0.1-0.9-0.3-1.9-0.4-2.8l-0.3,0.3l-4.4,0.2l-1.1,12.1l-7-3.7l0,9.6l-5.6,0l-1.2,2.5l3-0.5c1.3,2.7,2.5,5.5,4,8
				c8,13.2,19.3,21.7,34.7,24.3c12.8,2.1,25,0.1,36.7-5.1c3.1-1.4,6-3,8.9-4.8C125.1,125.8,125.5,123.5,123.9,120.8z"/>
		</g>
	</g>
</g>
</svg>
