<?xml version="1.0" encoding="utf-8"?>
<!-- Generator: Adobe Illustrator 22.0.1, SVG Export Plug-In . SVG Version: 6.00 Build 0)  -->
<svg version="1.1" id="Calque_1" xmlns="http://www.w3.org/2000/svg" xmlns:xlink="http://www.w3.org/1999/xlink" x="0px" y="0px"
	 viewBox="0 0 141.7 141.7" style="enable-background:new 0 0 141.7 141.7;" xml:space="preserve">
<style type="text/css">
	.st0{fill:#1D214C;}
	.st1{fill:#2C4585;}
	.st2{fill:#273471;}
	.st3{fill:#FFFFFF;}
</style>
<g>
	<g>
		<path class="st0" d="M42.5,58.3l81.7,76.6c3,2.8,7.7,2.7,10.6-0.2s2.9-7.6,0.2-10.6L58.3,42.5L42.5,58.3z"/>
		<polygon class="st1" points="84.2,36.1 72.9,47.5 86.9,70.2 109.7,84.2 121,72.9 		"/>
		<rect x="46.9" y="58.2" transform="matrix(0.7071 -0.7071 0.7071 0.7071 -38.2129 76.2033)" class="st2" width="52" height="52"/>
		<path class="st3" d="M46.7,11.9c22,22,16.5,32.1,7,41.7s-19.8,15-41.7-7c-9.6-9.6-9.6-25.2,0-34.8S37.1,2.3,46.7,11.9z"/>
	</g>
</g>
</svg>
