<?xml version="1.0" encoding="utf-8"?>
<!-- Generator: Adobe Illustrator 22.0.1, SVG Export Plug-In . SVG Version: 6.00 Build 0)  -->
<svg version="1.1" id="Calque_1" xmlns="http://www.w3.org/2000/svg" xmlns:xlink="http://www.w3.org/1999/xlink" x="0px" y="0px"
	 viewBox="0 0 141.7 141.7" style="enable-background:new 0 0 141.7 141.7;" xml:space="preserve">
<style type="text/css">
	.st0{fill:#FFFFFF;}
	.st1{fill:#292B73;}
</style>
<g>
	<path class="st0" d="M41,68.1c-0.2-3.3,0.5-6.2,2-9c2.4-4.4,6-6.8,10.9-7.6c2.8-0.5,5.4-0.3,8.1,0.5c5.4,1.6,8.8,5.4,10.2,10.7
		c1.1,3.9,1,8-0.3,11.9c-1.7,4.8-4.8,8.3-9.9,9.8c-2.8,0.8-5.6,0.9-8.5,0.3c-2.3-0.4-4.4-1.3-6.3-2.6c-2.3-1.6-3.7-3.8-4.8-6.2
		C41.3,73.3,40.8,70.7,41,68.1z M48.7,68.2c0,1.4,0.2,2.7,0.7,4.1c1.1,2.8,3.8,5.8,7.8,5.6c2.7-0.2,4.7-1.3,6-3.4
		c2.5-3.8,2.4-9.1-0.1-12.8c-2.9-4.4-10.2-4.5-12.9,0.7C49.2,64.2,48.6,66.1,48.7,68.2z"/>
	<path class="st1" d="M31.2,60.5c0,4.9,0,9.9,0,14.8c0,1.1,0.1,1.2-1.2,1.2c-0.9,0-1.9,0-2.8,0c-1.8,0-1.6,0.2-1.6-1.5
		c0-2.6,0-5.1,0-7.7c0-3.1,0-6.3,0-9.4c0-0.2-0.1-0.4-0.2-0.5c-0.2,0.1-0.4,0.2-0.5,0.4c-1.4,2.7-2.7,5.4-4,8.1
		c-0.6,1.2-1.2,2.3-1.7,3.5c-0.3,0.6-0.7,0.8-1.3,0.8c-2.9,0.1-2.9,0.2-4.3-2.5c-1.7-3.4-3.4-6.9-5.2-10.3c-0.1-0.1-0.2-0.2-0.3-0.3
		C8.1,57,8,57.1,8,57.2c0,2.1,0,4.3,0,6.4c0,3.9,0,7.9,0,11.8c0,0.7-0.1,1.1-0.9,1c-1.5-0.1-3-0.1-4.5-0.1c-0.1-1.5-0.2-3-0.2-4.4
		c0-8.8,0-17.6,0-26.4c0-1.3-0.1-1.3,1.2-1.3c0.4,0,0.7,0,1.1,0c1.1,0,2.3,0,3.4,0c0.6,1.2,1.3,2.4,1.9,3.6c0.4,0.7,0.6,1.5,0.9,2.3
		c1.8,3.8,3.7,7.6,5.5,11.5c0.1,0.2,0.2,0.4,0.2,0.6c0.1-0.2,0.2-0.3,0.3-0.5c2.2-4.2,4.2-8.6,6.1-13c0.6-1.5,1.5-2.9,2.2-4.4
		c1.5,0,3-0.1,4.5-0.1c1.5,0,1.3,0,1.3,1.4C31.2,50.6,31.2,55.6,31.2,60.5z"/>
	<path class="st1" d="M82.6,60.4c0-5,0-10,0-15c0-1.1,0-1.1,1-1.1c3.3,0,6.6,0,9.9,0c1.5,0,2.9,0.6,4,1.5c2.5,1.9,4.1,4.3,4,7.6
		c0,2.9-0.8,5.2-3.5,6.6c-0.1,0.1-0.2,0.3-0.3,0.5c0.1,0,0.3,0.1,0.4,0.1c2.4,1.1,3.9,3,4.2,5.5c0.6,4.9-2.2,8.8-7,10.2
		c-0.4,0.1-0.8,0.1-1.2,0.1c-3.4,0-6.7,0-10.1,0c-1.6,0-1.4,0.2-1.4-1.5C82.6,70.1,82.6,65.2,82.6,60.4z M88.2,67.2
		c0,1.2,0.1,2.4,0,3.6c0,0.8,0.3,1,1,0.9c1,0,2,0,3,0c2.5,0,3.7-0.8,4.5-3.1c0.8-2.1-1.1-5.6-3.4-5.8c-1.6-0.2-3.2,0-4.9,0
		c-0.1,1.3-0.1,2.6-0.2,4C88.2,66.9,88.2,67.1,88.2,67.2z M88.2,53.7c0,0.1,0,0.1,0,0.2c0.1,1.3,0.1,2.7,0.2,4c1.3,0,2.7,0.1,4,0.1
		c0.5,0,1,0,1.6-0.3c2.5-1.3,3-4.8,1.2-7c-0.5-0.5-1.2-1.1-1.9-1.2c-1.6-0.1-3.2,0-4.9,0c-0.1,1.3-0.1,2.6-0.2,4
		C88.2,53.6,88.2,53.6,88.2,53.7z"/>
	<path class="st1" d="M119.5,60.4c0-5,0-10,0-15c0-1.1,0-1.1,1-1.1c3.3,0,6.6,0,9.9,0c1.5,0,2.9,0.6,4,1.5c2.5,1.9,4.1,4.3,4,7.6
		c0,2.9-0.8,5.2-3.5,6.6c-0.1,0.1-0.2,0.3-0.3,0.5c0.1,0,0.3,0.1,0.4,0.1c2.4,1.1,3.9,3,4.2,5.5c0.6,4.9-2.2,8.8-7,10.2
		c-0.4,0.1-0.8,0.1-1.2,0.1c-3.4,0-6.7,0-10.1,0c-1.6,0-1.4,0.2-1.4-1.5C119.5,70.1,119.5,65.2,119.5,60.4z M125.1,67.2
		c0,1.2,0.1,2.4,0,3.6c0,0.8,0.3,1,1,0.9c1,0,2,0,3,0c2.5,0,3.7-0.8,4.5-3.1c0.8-2.1-1.1-5.6-3.4-5.8c-1.6-0.2-3.2,0-4.9,0
		c-0.1,1.3-0.1,2.6-0.2,4C125.1,66.9,125.1,67.1,125.1,67.2z M125.1,53.7c0,0.1,0,0.1,0,0.2c0.1,1.3,0.1,2.7,0.2,4
		c1.3,0,2.7,0.1,4,0.1c0.5,0,1,0,1.6-0.3c2.5-1.3,3-4.8,1.2-7c-0.5-0.5-1.2-1.1-1.9-1.2c-1.6-0.1-3.2,0-4.9,0
		c-0.1,1.3-0.1,2.6-0.2,4C125.1,53.6,125.1,53.6,125.1,53.7z"/>
	<path class="st1" d="M113.1,60.5c0,4.9,0,9.7,0,14.6c0,1.5,0.1,1.3-1.4,1.3c-1.1,0-2.3,0-3.4,0c-0.5,0-0.8-0.2-0.7-0.7
		c0-0.2,0-0.4,0-0.6c0-9.8,0-19.6,0-29.4c0-1.5-0.2-1.5,1.3-1.4c1.4,0,2.8,0.1,4.2,0.2c0,1.3,0.1,2.7,0.1,4
		C113.1,52.5,113.1,56.5,113.1,60.5z"/>
	<path class="st1" d="M76.2,46.2c0-0.4,0-0.9,0-1.3c0-0.4,0.1-0.6,0.6-0.7c0.4,0,0.7,0.1,0.7,0.5c0,0.9,0,1.8,0,2.8
		c0,0.5-0.3,0.6-0.7,0.5c-0.5,0-0.6-0.2-0.6-0.7C76.2,47.1,76.2,46.6,76.2,46.2z"/>
	<path class="st1" d="M77.5,60.4c0,0.4,0,0.9,0,1.3c0,0.4-0.1,0.6-0.6,0.7c-0.4,0-0.7-0.1-0.7-0.5c0-0.9,0-1.9,0-2.8
		c0-0.5,0.3-0.6,0.7-0.5c0.5,0,0.6,0.2,0.6,0.7C77.5,59.5,77.5,59.9,77.5,60.4z"/>
	<path class="st1" d="M77.5,74.7c0,0.5,0,1,0,1.5c0,0.1-0.3,0.3-0.5,0.3c-0.3,0-0.7-0.2-0.7-0.3c-0.1-1.1-0.1-2.1,0-3.2
		c0-0.1,0.4-0.4,0.6-0.4c0.2,0,0.6,0.2,0.6,0.4C77.5,73.5,77.5,74.1,77.5,74.7C77.5,74.7,77.5,74.7,77.5,74.7z"/>
	<path class="st1" d="M77.5,88.9c0,0.4,0.1,0.9,0,1.3c0,0.2-0.3,0.4-0.6,0.4c-0.4,0.1-0.7,0-0.7-0.5c0-0.9,0-1.8,0-2.8
		c0-0.5,0.3-0.6,0.7-0.6c0.5,0,0.6,0.2,0.6,0.7C77.5,87.9,77.5,88.4,77.5,88.9C77.5,88.9,77.5,88.9,77.5,88.9z"/>
	<path class="st1" d="M77.5,53.1c0,0.4,0,0.7,0,1.1c0,0.4,0.1,0.8-0.6,0.9c-0.6,0-0.7-0.3-0.7-0.8c0-0.6,0-1.3,0-1.9
		c0-0.5,0.1-0.8,0.7-0.8c0.5,0,0.6,0.2,0.6,0.7C77.5,52.5,77.5,52.8,77.5,53.1z"/>
	<path class="st1" d="M77.5,67.3c0,0.5,0.1,1,0,1.5c0,0.2-0.4,0.4-0.6,0.4c-0.2,0-0.6-0.2-0.6-0.3c-0.1-0.8,0-1.7,0-2.6
		c0-0.5,0.4-0.6,0.7-0.5c0.2,0,0.5,0.3,0.5,0.5C77.6,66.5,77.5,66.9,77.5,67.3z"/>
	<path class="st1" d="M77.5,81.8c0,0.4,0.1,0.9,0,1.3c0,0.1-0.5,0.2-0.7,0.2c-0.2,0-0.5-0.2-0.5-0.3c0-0.9,0-1.8,0-2.8
		c0-0.1,0.4-0.3,0.6-0.3c0.2,0,0.6,0.2,0.6,0.4C77.5,80.8,77.5,81.3,77.5,81.8C77.5,81.8,77.5,81.8,77.5,81.8z"/>
	<path class="st1" d="M77.5,96c0,0.4,0.1,0.7,0,1.1c-0.1,0.2-0.4,0.4-0.6,0.4c-0.2,0-0.7-0.2-0.7-0.3c-0.1-0.9-0.1-1.8,0-2.8
		c0-0.1,0.4-0.3,0.6-0.3c0.2,0,0.5,0.2,0.6,0.4C77.5,95,77.5,95.5,77.5,96z"/>
	<path class="st1" d="M36.2,46.2c0-0.4,0-0.9,0-1.3c0-0.4,0.1-0.6,0.6-0.7c0.4,0,0.7,0.1,0.7,0.5c0,0.9,0,1.8,0,2.8
		c0,0.5-0.3,0.6-0.7,0.5c-0.5,0-0.6-0.2-0.6-0.7C36.2,47.1,36.2,46.6,36.2,46.2z"/>
	<path class="st1" d="M37.5,60.4c0,0.4,0,0.9,0,1.3c0,0.4-0.1,0.6-0.6,0.7c-0.4,0-0.7-0.1-0.7-0.5c0-0.9,0-1.9,0-2.8
		c0-0.5,0.3-0.6,0.7-0.5c0.5,0,0.6,0.2,0.6,0.7C37.5,59.5,37.5,59.9,37.5,60.4z"/>
	<path class="st1" d="M37.5,74.7c0,0.5,0,1,0,1.5c0,0.1-0.3,0.3-0.5,0.3c-0.3,0-0.7-0.2-0.7-0.3c-0.1-1.1-0.1-2.1,0-3.2
		c0-0.1,0.4-0.4,0.6-0.4c0.2,0,0.6,0.2,0.6,0.4C37.6,73.5,37.5,74.1,37.5,74.7C37.5,74.7,37.5,74.7,37.5,74.7z"/>
	<path class="st1" d="M37.5,88.9c0,0.4,0.1,0.9,0,1.3c0,0.2-0.3,0.4-0.6,0.4c-0.4,0.1-0.7,0-0.7-0.5c0-0.9,0-1.8,0-2.8
		c0-0.5,0.3-0.6,0.7-0.6c0.5,0,0.6,0.2,0.6,0.7C37.5,87.9,37.5,88.4,37.5,88.9C37.5,88.9,37.5,88.9,37.5,88.9z"/>
	<path class="st1" d="M37.5,53.1c0,0.4,0,0.7,0,1.1c0,0.4,0.1,0.8-0.6,0.9c-0.6,0-0.7-0.3-0.7-0.8c0-0.6,0-1.3,0-1.9
		c0-0.5,0.1-0.8,0.7-0.8c0.5,0,0.6,0.2,0.6,0.7C37.5,52.5,37.5,52.8,37.5,53.1z"/>
	<path class="st1" d="M37.5,67.3c0,0.5,0.1,1,0,1.5c0,0.2-0.4,0.4-0.6,0.4c-0.2,0-0.6-0.2-0.6-0.3c-0.1-0.8,0-1.7,0-2.6
		c0-0.5,0.4-0.6,0.7-0.5c0.2,0,0.5,0.3,0.5,0.5C37.6,66.5,37.5,66.9,37.5,67.3z"/>
	<path class="st1" d="M37.5,81.8c0,0.4,0.1,0.9,0,1.3c0,0.1-0.5,0.2-0.7,0.2c-0.2,0-0.5-0.2-0.5-0.3c0-0.9,0-1.8,0-2.8
		c0-0.1,0.4-0.3,0.6-0.3c0.2,0,0.6,0.2,0.6,0.4C37.6,80.8,37.5,81.3,37.5,81.8C37.5,81.8,37.5,81.8,37.5,81.8z"/>
	<path class="st1" d="M37.5,96c0,0.4,0.1,0.7,0,1.1c-0.1,0.2-0.4,0.4-0.6,0.4c-0.2,0-0.7-0.2-0.7-0.3c-0.1-0.9-0.1-1.8,0-2.8
		c0-0.1,0.4-0.3,0.6-0.3c0.2,0,0.5,0.2,0.6,0.4C37.6,95,37.5,95.5,37.5,96z"/>
</g>
</svg>
