<?xml version="1.0" encoding="utf-8"?>
<!-- Generator: Adobe Illustrator 22.0.1, SVG Export Plug-In . SVG Version: 6.00 Build 0)  -->
<svg version="1.1" id="Calque_1" xmlns="http://www.w3.org/2000/svg" xmlns:xlink="http://www.w3.org/1999/xlink" x="0px" y="0px"
	 viewBox="0 0 141.7 141.7" style="enable-background:new 0 0 141.7 141.7;" xml:space="preserve">
<style type="text/css">
	.st0{fill:#F1BB47;}
	.st1{fill:#32409A;}
	.st2{fill:#2D2E73;}
</style>
<g>
	<g>
		<path class="st0" d="M90,70.5h9.9v70H90V70.5z"/>
		<path class="st1" d="M94.9,16c0,8.2-6.6,14.9-14.9,14.9S65.2,24.3,65.2,16c0-8.2,6.6-14.9,14.9-14.9S94.9,7.8,94.9,16z"/>
		<path class="st1" d="M104.6,76.8L104.6,76.8c-3.1,4.7-9.6,5.8-14.1,2.4L67.4,62l-8.1-12.2c-1.8,8.7-4,14.4-4,24v66.8H35.5V73.8
			c0-17.6,5.9-36.9,16.5-50.2c4.1-5.4,12.2-4.5,15.8,0.9l14.5,24.1l20,14.8C106.5,66.5,107.5,72.4,104.6,76.8z"/>
		<g>
			<g>
				<path class="st2" d="M104.6,76.8L104.6,76.8c-3.1,4.7-9.6,5.8-14.1,2.4l-10.4-7.8V44.9l2.2,3.7l20,14.8
					C106.5,66.5,107.5,72.4,104.6,76.8z"/>
				<path class="st2" d="M94.9,16c0,8.2-6.6,14.9-14.9,14.9V1.2C88.3,1.2,94.9,7.8,94.9,16z"/>
			</g>
		</g>
	</g>
</g>
</svg>
