<?xml version="1.0" encoding="utf-8"?>
<!-- Generator: Adobe Illustrator 22.0.1, SVG Export Plug-In . SVG Version: 6.00 Build 0)  -->
<svg version="1.1" id="Calque_1" xmlns="http://www.w3.org/2000/svg" xmlns:xlink="http://www.w3.org/1999/xlink" x="0px" y="0px"
	 viewBox="0 0 141.7 141.7" style="enable-background:new 0 0 141.7 141.7;" xml:space="preserve">
<style type="text/css">
	.st0{fill:#32409A;}
</style>
<g>
	<g>
		<path class="st0" d="M72,115.6c-16.1,0.1-30.5-2.7-43.9-9.7C19.4,101.4,12,95.5,6.9,87C0.3,75.9,1,62.7,8.6,52.2
			c7.6-10.4,18.1-16.5,30-20.8c11.9-4.3,24.3-5.8,37-5.2c16.1,0.8,31.3,4.6,44.8,13.7c5,3.3,9.3,7.4,12.7,12.2
			c8.9,12.5,8.2,28.1-1.9,40c-8.2,9.6-18.8,15.3-30.6,19.1C91,114.4,81,115.8,72,115.6z M70.9,111.3c5.8-0.2,11.8-0.7,17.8-2.2
			c10.9-2.6,20.9-7.2,28.9-15.2c13-13,13.7-30.4,1.6-44.2c-6.1-7-13.8-11.6-22.5-14.6c-14.1-5-28.6-5.7-43.1-2.5
			c-12.7,2.8-24,8.3-32.4,18.6c-7.6,9.4-9.5,19.9-4.9,31.3c2.9,7.1,8.1,12.5,14.3,16.9C42.7,107.8,56.2,110.8,70.9,111.3z"/>
		<path class="st0" d="M40.3,91.4c1.1-1.8,2.4-3.2,3.7-4.3c1.1-0.2,1.6,0.9,3.2,0.4c0.2-10.7,0.1-21.7,0-32.5
			c-1.4-0.6-2.1,0.7-3.4,0.3c-1.2-1-2.4-2.3-3.2-3.8c0.2-1.1,1-1.6,1.7-2.1c6.7-4.9,14.1-7.7,22.3-8.6c7.7-0.9,15.1-0.1,22.3,2.7
			c3.3,1.3,6.1,3.2,8.6,5.7c5.3,5.4,3.6,14-1.2,17.9c-0.8,0.6-1.9,1-2.3,2c0.4,1.1,1.5,1.1,2.3,1.5c9.6,4.3,11.5,15,4.1,22.6
			c-4,4.1-9,6.3-14.4,7.5c-14.1,3.1-27.5,1.4-40-5.9C42.8,93.8,41.3,93.1,40.3,91.4z M63.2,73.1c-0.5,1.3-0.4,2.1-0.4,2.8
			c0,5.3,0,10.6,0.1,15.9c0,1.9,1.4,2.7,3.1,2.7c3,0,5.9,0.1,8.9,0c5.4-0.1,9.5-4,10.4-9.5c0.7-4.5-2.7-10.1-7.3-11.4
			C73,72.2,68.1,73.1,63.2,73.1z M62.9,65.9c3.4,0.9,6.7,0.7,9.9,0.3c4.4-0.6,7.3-3.7,8.1-8c0.7-3.5-1-7.1-4.2-9.1
			c-3.7-2.2-7.7-1.8-11.6-1.3c-1.2,0.1-2.1,1.1-2.1,2.3C62.7,55.4,62.6,60.5,62.9,65.9z"/>
	</g>
</g>
</svg>
