<?xml version="1.0" encoding="utf-8"?>
<!-- Generator: Adobe Illustrator 22.0.1, SVG Export Plug-In . SVG Version: 6.00 Build 0)  -->
<svg version="1.1" id="Calque_1" xmlns="http://www.w3.org/2000/svg" xmlns:xlink="http://www.w3.org/1999/xlink" x="0px" y="0px"
	 viewBox="0 0 141.7 141.7" style="enable-background:new 0 0 141.7 141.7;" xml:space="preserve">
<style type="text/css">
	.st0{fill:#32409A;}
	.st1{fill:#F3F3F3;}
	.st2{fill:#F1BB47;}
	.st3{opacity:0.5;fill:#2D3587;}
	.st4{fill:#E5E5E5;}
	.st5{fill:#2D2E73;}
</style>
<g>
	<circle class="st0" cx="97" cy="35.1" r="4.4"/>
	<circle class="st0" cx="98.6" cy="26.2" r="4.4"/>
	<circle class="st0" cx="101.5" cy="17.4" r="4.4"/>
	<circle class="st0" cx="103.7" cy="8.6" r="4.4"/>
	<path class="st0" d="M124.6,69l-7.4,45.6c-2.5,15.3-17,25.8-32.3,23.3l-5.7-0.9c-15.3-2.5-25.8-17-23.3-32.3l7.4-45.6
		c2.5-15.3,17-25.8,32.3-23.3l5.7,0.9C116.6,39.1,127.1,53.7,124.6,69z"/>
	<path class="st1" d="M108.9,56.1c-4.2,2.7-9.4,3.9-14.8,2.9c-5.4-1-10-4-13.2-8.1c-4.6,3-8,8-8.9,14l-6.3,42.4
		c-1.7,11.4,6.2,22.4,17.5,24.6c11.4,2.1,22-5.4,23.7-16.9l6.3-42.4C114.1,66.6,112.4,60.7,108.9,56.1z"/>
	<path class="st2" d="M95.7,124.2c-3.4,2.4-7.5,3.3-11.7,2.5c-4.1-0.8-7.8-3.1-10.3-6.7c-2.5-3.5-3.5-7.7-2.9-11.9l6.3-42.4
		c0.4-3,1.7-5.7,3.6-7.9c3.6,3.1,7.9,5.3,12.6,6.2c4.7,0.9,9.4,0.4,13.7-1.2c1.2,2.7,1.6,5.7,1.1,8.7l-6.3,42.4
		C101.3,118.2,99.1,121.8,95.7,124.2z"/>
	<g>
		<polygon class="st1" points="78.2,110 75.1,109.4 81.4,66.2 84.6,66.8 		"/>
		<polygon class="st1" points="87.8,111.8 84.7,111.2 91.1,68 94.2,68.6 		"/>
		<polygon class="st1" points="97.5,113.6 94.4,113 100.8,69.9 103.9,70.4 		"/>
	</g>
	<path class="st3" d="M94.6,38.7l-7.5-4.3c-10.8,1-20.1,9.3-21.9,20.5l-8.5,52.8c-1.3,8.2,1.7,16.2,7.3,21.6
		c5.2-1.9,9.9-5.6,12.9-10.8l26.8-46.3C110.3,60.5,106.3,45.4,94.6,38.7z"/>
	<path class="st0" d="M97.5,70.3l-23.1,40c-7.8,13.4-25.1,18.1-38.5,10.3l-5-2.9C17.4,110,12.7,92.7,20.5,79.3l23.1-40
		c7.8-13.4,25.1-18.1,38.5-10.3l5,2.9C100.6,39.6,105.2,56.9,97.5,70.3z"/>
	<path class="st1" d="M86.1,53.5c-4.7,0.9-9.7,0.1-14.1-2.7c-4.4-2.8-7.4-7.2-8.8-12c-5.2,1-9.8,4.2-12.7,9.3L30,83.6
		c-5.5,9.6-2.4,22.2,6.9,28.2c9.3,6,21.3,3,26.8-6.6l20.4-35.5C87.1,64.7,87.6,58.8,86.1,53.5z"/>
	<path class="st2" d="M50.6,109.4c-3.8,0.9-7.8,0.3-11.2-1.9c-3.4-2.2-5.8-5.6-6.8-9.6c-1-4-0.4-8.2,1.6-11.7l20.4-35.5
		c1.4-2.5,3.5-4.5,5.9-5.7c2.1,4.1,5.2,7.6,9,10c3.8,2.5,8.2,3.8,12.6,3.8c0.1,2.9-0.6,5.7-2.1,8.2l-20.4,35.5
		C57.6,106.1,54.4,108.5,50.6,109.4z"/>
	<g>
		<polygon class="st1" points="40.1,90.5 37.5,88.8 58.3,52.7 60.8,54.3 		"/>
		<polygon class="st1" points="48,95.5 45.4,93.9 66.2,57.7 68.8,59.4 		"/>
		<polygon class="st1" points="55.9,100.6 53.4,99 74.1,62.8 76.7,64.5 		"/>
	</g>
	<circle class="st4" cx="78.2" cy="41.6" r="6"/>
	<circle class="st5" cx="76.7" cy="34.3" r="4.4"/>
	<circle class="st5" cx="75.1" cy="25.5" r="4.4"/>
	<circle class="st5" cx="72.2" cy="16.6" r="4.4"/>
	<circle class="st5" cx="69.9" cy="7.8" r="4.4"/>
</g>
</svg>
