<?xml version="1.0" encoding="utf-8"?>
<!-- Generator: Adobe Illustrator 22.0.1, SVG Export Plug-In . SVG Version: 6.00 Build 0)  -->
<svg version="1.1" id="Calque_1" xmlns="http://www.w3.org/2000/svg" xmlns:xlink="http://www.w3.org/1999/xlink" x="0px" y="0px"
	 viewBox="0 0 141.7 141.7" style="enable-background:new 0 0 141.7 141.7;" xml:space="preserve">
<style type="text/css">
	.st0{fill:#FFFFFF;}
	.st1{fill:#263A72;}
	.st2{fill:#272B60;}
	.st3{fill:#2B3D87;}
	.st4{fill:#292B73;}
</style>
<g>
	<g>
		<path class="st0" d="M131.5,131.9c-2,0-3.6-1.6-3.6-3.6V51.9c0-2,1.6-3.6,3.6-3.6c2,0,3.6,1.6,3.6,3.6v76.4
			C135.2,130.3,133.5,131.9,131.5,131.9z"/>
		<path class="st1" d="M111.1,63c-2,0-3.6,1.6-3.6,3.6H34.3c0-2-1.6-3.6-3.6-3.6S27,64.6,27,66.6v22.1c0,6.7,4.2,15,9.6,18.9
			l24,17.6c2.9,2.1,6.6,3.2,10.3,3.2c3.7,0,7.4-1.1,10.3-3.2l24-17.6c5.4-3.9,9.6-12.3,9.6-18.9V66.6C114.7,64.6,113.1,63,111.1,63z
			"/>
		<path class="st2" d="M111.1,63c-2,0-3.6,1.6-3.6,3.6H70.9v61.8c3.7,0,7.4-1.1,10.3-3.2l24-17.6c5.4-3.9,9.6-12.3,9.6-18.9V66.6
			C114.7,64.6,113.1,63,111.1,63z"/>
		<path class="st3" d="M133.4,43L82.7,10.7c-3.2-2-7.4-3.2-11.8-3.2c-4.4,0-8.6,1.1-11.8,3.2L8.3,43c-3.5,2.3-5.6,5.5-5.6,8.9
			s2,6.6,5.6,8.9l50.8,32.3c3.2,2,7.4,3.2,11.8,3.2c4.4,0,8.6-1.1,11.8-3.2l50.8-32.3c3.5-2.3,5.6-5.5,5.6-8.9
			C139,48.5,137,45.3,133.4,43z"/>
		<path class="st4" d="M133.4,43L82.7,10.7c-3.2-2-7.4-3.2-11.8-3.2v88.8c4.4,0,8.6-1.1,11.8-3.2l50.8-32.3c3.5-2.3,5.6-5.5,5.6-8.9
			C139,48.5,137,45.3,133.4,43z"/>
	</g>
	<circle class="st0" cx="131.5" cy="127.7" r="6.5"/>
</g>
</svg>
