<?xml version="1.0" encoding="utf-8"?>
<!-- Generator: Adobe Illustrator 22.0.1, SVG Export Plug-In . SVG Version: 6.00 Build 0)  -->
<svg version="1.1" id="Calque_1" xmlns="http://www.w3.org/2000/svg" xmlns:xlink="http://www.w3.org/1999/xlink" x="0px" y="0px"
	 viewBox="0 0 141.7 141.7" style="enable-background:new 0 0 141.7 141.7;" xml:space="preserve">
<style type="text/css">
	.st0{fill:#363F99;}
	.st1{fill:none;stroke:#292B73;stroke-width:8;stroke-miterlimit:10;}
</style>
<g>
	<polygon class="st0" points="30.3,63.4 10.2,63.4 10.2,41.4 0,41.4 20.2,16 40.5,41.5 30.3,41.5 	"/>
	<path class="st1" d="M19.9,70.8C19.9,70.9,19.9,70.9,19.9,70.8c0,28.2,22.8,51,51,51c11.6,0,22.4-3.9,31-10.5"/>
	<path class="st1" d="M121.8,70.9c0-28.1-22.8-51-51-51c-11.6,0-22.3,3.9-30.9,10.4c0,0,0,0-0.1,0"/>
	<g>
		<path class="st0" d="M85.7,93.4c-2.6,1.4-7,2.9-11.8,2.9c-7.4,0-14.2-3-18.4-8.6c-2-2.6-3.6-5.8-4.2-9.8h-4.9v-5.4h4.2
			c0-0.4,0-0.8,0-1.3c0-0.8,0.1-1.5,0.1-2.3l-4.2,0l0-5.4h5.1c1-4.1,2.8-7.6,5.2-10.4c4.3-4.8,10.4-7.7,17.5-7.7
			c4.6,0,8.6,1.1,11.3,2.3l-2.1,8.6c-2-0.8-5.1-1.8-8.4-1.8c-3.6,0-7,1.2-9.3,4.1c-1.1,1.2-1.9,2.9-2.4,4.9l18.8,0v5.4l-19.9,0
			C62,69.6,62,70.5,62,71.2c0,0.5,0,0.8,0,1.2l20,0v5.4l-19,0c0.5,2.3,1.4,4,2.5,5.3c2.4,2.7,6,3.9,9.7,3.9c3.5,0,7-1.1,8.6-2
			L85.7,93.4z"/>
	</g>
	<polygon class="st0" points="111.5,78.3 131.5,78.3 131.5,100.3 141.7,100.3 121.5,125.7 101.3,100.3 111.4,100.3 	"/>
</g>
</svg>
