<?xml version="1.0" encoding="utf-8"?>
<!-- Generator: Adobe Illustrator 22.0.1, SVG Export Plug-In . SVG Version: 6.00 Build 0)  -->
<svg version="1.1" id="Calque_1" xmlns="http://www.w3.org/2000/svg" xmlns:xlink="http://www.w3.org/1999/xlink" x="0px" y="0px"
	 viewBox="0 0 141.7 141.7" style="enable-background:new 0 0 141.7 141.7;" xml:space="preserve">
<style type="text/css">
	.st0{fill:#FFFFFF;}
	.st1{fill:#FAA31B;}
</style>
<g>
	<path class="st0" d="M71.3,44l-10.1-0.1c-2.5,0-4.5,2-4.5,4.4l0,3.5c4.1,0,7.4,3.4,7.4,7.5c0,4.1-3.4,7.4-7.5,7.3L56.4,74
		c4.1,0,7.4,3.4,7.4,7.5c0,4.1-3.4,7.4-7.5,7.3l0,3.5c0,2.5,2,4.5,4.4,4.5l4.4,0l5.7,0.1l0.1-7.2c0-1.3,1.1-2.4,2.4-2.4
		c0.8,0,1.5,0.4,1.9,1c0.3,0.4,0.5,0.9,0.4,1.4L75.6,97l43.2,0.4l0.1-7.2c0-1.3,1.1-2.4,2.4-2.4c1.3,0,2.4,1.1,2.4,2.4l-0.1,7.2
		l4.8,0l5.2,0c2.5,0,4.5-2,4.5-4.4l0-3.5c-4.1,0-7.4-3.4-7.4-7.5c0-4.1,3.4-7.4,7.5-7.3l0.1-7.4c-4.1,0-7.4-3.4-7.4-7.5
		c0-4.1,3.4-7.4,7.5-7.3l0-3.5c0-2.5-2-4.5-4.4-4.5l-10-0.1l-0.1,7.5c0,1.3-1.1,2.4-2.4,2.4c-1.3,0-2.4-1.1-2.4-2.4l0.1-7.5L76.1,44
		L76,51.5c0,0.9-0.5,1.6-1.2,2.1c-0.4,0.2-0.8,0.3-1.2,0.3c-1.3,0-2.4-1.1-2.4-2.4L71.3,44z M73.4,73c0.7,0,1.3,0.3,1.7,0.7
		c0.4,0.4,0.7,1,0.7,1.7l0,4.8c0,0.7-0.3,1.4-0.9,1.8c-0.4,0.4-1,0.6-1.6,0.6c-1.3,0-2.4-1.1-2.4-2.4l0-4.8C71,74,72.1,73,73.4,73z
		 M121.4,73.4c1.3,0,2.4,1.1,2.4,2.4l0,4.8c0,1.3-1.1,2.4-2.4,2.4c-1.3,0-2.4-1.1-2.4-2.4l0-4.8C119,74.4,120,73.4,121.4,73.4z
		 M73.6,58.6c0.6,0,1.1,0.2,1.5,0.5c0.6,0.4,0.9,1.1,0.9,1.9l0,4.8c0,0.8-0.4,1.5-1,1.9c-0.4,0.3-0.9,0.4-1.4,0.4
		c-1.3,0-2.4-1.1-2.4-2.4l0-4.8C71.1,59.6,72.2,58.6,73.6,58.6z M121.5,59c1.3,0,2.4,1.1,2.4,2.4l0,4.8c0,1.3-1.1,2.4-2.4,2.4
		c-1.3,0-2.4-1.1-2.4-2.4l0-4.8C119.1,60.1,120.2,59,121.5,59z"/>
	<path class="st0" d="M30.7,66.8c1.8,0,3.3,1.5,3.3,3.3c0,1.8-1.5,3.3-3.3,3.3L9.3,73.2c-1.8,0-3.3-1.5-3.3-3.3
		c0-1.8,1.5-3.3,3.3-3.3L30.7,66.8z"/>
	<path class="st0" d="M7.1,94.5l4.4,0c2.1,0,3.8,1.7,3.8,3.8c0,2.1-1.7,3.8-3.8,3.8l-4.4,0c-2.1,0-3.8-1.7-3.8-3.8
		C3.3,96.1,5,94.4,7.1,94.5z"/>
	<path class="st1" d="M14.9,61.6l-4.4,0c-2.1,0-3.8-1.7-3.8-3.8c0-2.1,1.7-3.8,3.8-3.8l4.4,0c2.1,0,3.8,1.7,3.8,3.8
		C18.7,60,17,61.7,14.9,61.6z"/>
	<path class="st1" d="M72.5,82.3c-0.8-0.4-1.4-1.2-1.4-2.2v-4.8c0-1.3,1.1-2.4,2.4-2.4c0.3,0,0.6,0.1,0.9,0.2l0.1-5.1
		c0,0-2.6,1-3.3-1.7l0-5.3c0,0,0.6-2.8,2.8-2.2v-5c0,0-2.8,0.4-2.7-2.7c0.1-3.5,0.1-7.1,0.1-7.1l-12.1-0.2l-16.8-0.1l-15-0.1
		c-1.8,0-3.3,1.4-3.3,3.3c0,1.8,1.4,3.3,3.3,3.3l6.8,0.1l1.8,0c1.4,0,2.5,1.2,2.5,2.6c0,1.4-1.2,2.5-2.6,2.5l-1.8,0l-9.3-0.1
		c-1.8,0-3.3,1.4-3.3,3.3c0,1.8,1.4,3.3,3.3,3.3l17.5,0.2l6.8,0.1c1.4,0,2.5,1.2,2.5,2.6c0,1.4-1.2,2.5-2.6,2.5l-6.8-0.1l-2.5,0
		c-1.8,0-3.3,1.4-3.3,3.3c0,1.8,1.4,3.3,3.3,3.3l2.5,0l11.2,0.1c1.4,0,2.5,1.2,2.5,2.6c0,1.4-1.2,2.5-2.6,2.5l-11.2-0.1l-16.8-0.1
		c-1.8,0-3.3,1.4-3.3,3.3c0,1.8,1.4,3.3,3.3,3.3l16.8,0.1l1.1,0c1.4,0,2.5,1.2,2.5,2.6c0,1.4-1.2,2.5-2.6,2.5l-1.1,0l-20.2-0.2
		c-1.8,0-3.3,1.4-3.3,3.3c0,1.8,1.4,3.3,3.3,3.3L42,96.8l13.3,0.1l15.8,0v-7.2c0-1.3,1-2.3,2.2-2.4c0,0,0,0,0,0l0-4.8
		C73.3,82.6,73,82.6,72.5,82.3z"/>
</g>
</svg>
