<?xml version="1.0" encoding="utf-8"?>
<!-- Generator: Adobe Illustrator 22.0.1, SVG Export Plug-In . SVG Version: 6.00 Build 0)  -->
<svg version="1.1" id="Calque_1" xmlns="http://www.w3.org/2000/svg" xmlns:xlink="http://www.w3.org/1999/xlink" x="0px" y="0px"
	 viewBox="0 0 141.7 141.7" style="enable-background:new 0 0 141.7 141.7;" xml:space="preserve">
<style type="text/css">
	.st0{fill:#FFFFFF;}
	.st1{fill:#292B73;}
</style>
<g>
	<path class="st0" d="M113.3,111.8c-14,0-25.3-11.4-25.3-25.3c0-14,11.4-25.3,25.3-25.3c14,0,25.3,11.4,25.3,25.3
		C138.7,100.4,127.3,111.8,113.3,111.8z M113.3,69.1c-9.6,0-17.3,7.8-17.3,17.3c0,9.6,7.8,17.3,17.3,17.3s17.3-7.8,17.3-17.3
		C130.7,76.9,122.9,69.1,113.3,69.1z"/>
	<path class="st0" d="M28.4,111.8c-14,0-25.3-11.4-25.3-25.3c0-14,11.4-25.3,25.3-25.3c14,0,25.3,11.4,25.3,25.3
		C53.7,100.4,42.4,111.8,28.4,111.8z M28.4,69.1c-9.6,0-17.3,7.8-17.3,17.3s7.8,17.3,17.3,17.3S45.7,96,45.7,86.5S38,69.1,28.4,69.1
		z"/>
	<path class="st1" d="M111.8,45.4c0,2.2,1.8,4,4,4c2.2,0,4-1.8,4-4c0-8.5-6.9-15.5-15.5-15.5H92c-1.3,0-2.6,0.7-3.3,1.8
		c-0.7,1.1-0.9,2.5-0.4,3.7l4,9.9H49.9l-7-13.3c-1-2-3.5-2.7-5.4-1.7c-2,1-2.7,3.5-1.7,5.4l7.1,13.4l-18,35.5
		c-0.6,1.2-0.6,2.7,0.2,3.9c0.7,1.2,2,1.9,3.4,1.9h36.3l5.1,9.7c0.7,1.4,2.1,2.1,3.5,2.1c0.6,0,1.3-0.1,1.9-0.5c2-1,2.7-3.5,1.7-5.4
		l-5-9.5L97,57l12.6,31c0.6,1.6,2.1,2.5,3.7,2.5c0.5,0,1-0.1,1.5-0.3c2-0.8,3-3.2,2.2-5.2l-19.1-47h6.4
		C108.4,37.9,111.8,41.3,111.8,45.4z M34.9,82.5l12.5-24.6l13,24.6H34.9z M67.8,79.3l-13.7-26h35.6L67.8,79.3z"/>
	<path class="st0" d="M48.1,37.9H30.5c-2.2,0-4-1.8-4-4s1.8-4,4-4h17.6c2.2,0,4,1.8,4,4S50.3,37.9,48.1,37.9z"/>
	<path class="st1" d="M104.3,29.9H92c-1.3,0-2.6,0.7-3.3,1.8c-0.7,1.1-0.9,2.5-0.4,3.7l4,9.9H70.9v8h18.8L70.9,75.7v25.8
		c0.7,0.6,1.6,0.9,2.5,0.9c0.6,0,1.3-0.1,1.9-0.5c2-1,2.7-3.5,1.7-5.4l-5-9.5L97,57l12.6,31c0.6,1.6,2.1,2.5,3.7,2.5
		c0.5,0,1-0.1,1.5-0.3c2-0.8,3-3.2,2.2-5.2l-19.1-47h6.4c4.1,0,7.5,3.3,7.5,7.5c0,2.2,1.8,4,4,4c2.2,0,4-1.8,4-4
		C119.8,36.9,112.8,29.9,104.3,29.9z"/>
	<path class="st0" d="M78.3,94.3h-7.5h-4.2c-2.2,0-4,1.8-4,4c0,2.2,1.8,4,4,4h4.2h7.5c2.2,0,4-1.8,4-4
		C82.3,96.1,80.5,94.3,78.3,94.3z"/>
</g>
</svg>
